<svg width="86" height="19" viewBox="0 0 86 19" fill="none" xmlns="http://www.w3.org/2000/svg">
<rect width="86" height="19" fill="#E5E5E5"/>
<g id="Homepage" clip-path="url(#clip0_0_1)">
<rect width="1920" height="9829" transform="translate(-948 -700)" fill="white"/>
<g id="Header">
<g id="background" clip-path="url(#clip1_0_1)">
<rect width="1920" height="1080" transform="translate(-948 -700)" fill="url(#paint0_radial_0_1)"/>
<g id="lines" opacity="0.4">
<path id="line" d="M16.8841 18.2879L0 1.40625L1.08564 0.320458L17.9697 17.2021L16.8841 18.2879Z" fill="white"/>
<path id="line_2" d="M33.7552 18.3021L16.8799 1.41406L17.9651 0.328013L34.8404 17.2161L33.7552 18.3021Z" fill="white"/>
<path id="line_3" d="M50.636 18.3114L33.7607 1.4209L34.8461 0.334849L51.7214 17.2253L50.636 18.3114Z" fill="white"/>
<path id="line_4" d="M67.513 18.3158L50.6377 1.42773L51.7229 0.341685L68.5982 17.2298L67.513 18.3158Z" fill="white"/>
<path id="line_5" d="M84.3958 18.3207L67.5205 1.43262L68.6057 0.346568L85.481 17.2346L84.3958 18.3207Z" fill="white"/>
</g>
<path id="shape" opacity="0.1" d="M1182.29 -52.4533C1142.41 99.1008 1115.42 295.209 948.167 338.491C785.62 380.556 681.495 191.724 527.643 127.342C358.975 56.759 102.099 124.74 25.4622 -26.9809C-56.1021 -188.458 53.479 -415.41 210.554 -521.986C346.46 -614.199 526.729 -501.806 697.732 -495.544C861.663 -489.541 1050.41 -592.184 1165.41 -487.022C1284.99 -377.675 1221.3 -200.67 1182.29 -52.4533Z" fill="url(#paint1_linear_0_1)"/>
</g>
</g>
</g>
<defs>
<radialGradient id="paint0_radial_0_1" cx="0" cy="0" r="1" gradientUnits="userSpaceOnUse" gradientTransform="translate(192 146) rotate(43.7519) scale(1298.56 2308.54)">
<stop stop-color="#1E212C"/>
<stop offset="0.563811" stop-color="#232441"/>
<stop offset="1" stop-color="#1E212C"/>
</radialGradient>
<linearGradient id="paint1_linear_0_1" x1="1214.5" y1="40.5" x2="171.496" y2="-642.728" gradientUnits="userSpaceOnUse">
<stop offset="0.00619811" stop-color="white" stop-opacity="0"/>
<stop offset="0.479312" stop-color="white"/>
<stop offset="1" stop-color="white" stop-opacity="0"/>
</linearGradient>
<clipPath id="clip0_0_1">
<rect width="1920" height="9829" fill="white" transform="translate(-948 -700)"/>
</clipPath>
<clipPath id="clip1_0_1">
<rect width="1920" height="1080" fill="white" transform="translate(-948 -700)"/>
</clipPath>
</defs>
</svg>
