<svg width="40" height="40" viewBox="0 0 40 40" fill="none" xmlns="http://www.w3.org/2000/svg">
<g id="ic-chat" clip-path="url(#clip0_2196_2187)">
<g id="Group">
<g id="Group_2">
<path id="Vector" d="M37.7913 22.0345C39.2377 19.7423 40 17.1036 40 14.3749C40 6.44859 33.5514 0 25.6251 0C22.9701 0 20.376 0.729766 18.1235 2.11039C17.7556 2.33586 17.6402 2.8168 17.8657 3.18469C18.0911 3.5525 18.572 3.66805 18.94 3.4425C20.9467 2.21258 23.2584 1.5625 25.6252 1.5625C32.6899 1.5625 38.4376 7.31008 38.4376 14.3749C38.4376 16.9372 37.6839 19.4099 36.2579 21.5258C36.0688 21.8064 36.0849 22.1692 36.2795 22.4298L37.1356 25.6248L33.6994 24.704C33.4743 24.6437 33.2341 24.6869 33.0442 24.822C30.8694 26.3695 28.3039 27.1874 25.6252 27.1874C24.0991 27.1874 22.6066 26.9209 21.187 26.3964C20.1877 22.7163 17.2841 19.8126 13.604 18.8134C13.0795 17.3938 12.8127 15.9015 12.8127 14.375C12.8127 11.982 13.4764 9.64836 14.732 7.62625C14.9596 7.25969 14.847 6.77805 14.4804 6.55039C14.114 6.32281 13.6322 6.43539 13.4045 6.80203C11.9951 9.07188 11.2502 11.6905 11.2502 14.375C11.2502 15.7802 11.4519 17.1601 11.8495 18.4906C11.4981 18.4559 11.1418 18.4377 10.7814 18.4377C4.83665 18.4377 0.000244141 23.2742 0.000244141 29.2189C0.000244141 31.3524 0.617119 33.4005 1.78759 35.1659L0.951494 38.2866C0.879229 38.5563 0.956338 38.8439 1.15368 39.0413C1.35103 39.2387 1.6386 39.3157 1.90829 39.2435L5.10634 38.3866C6.80946 39.4431 8.76384 40 10.7814 40C12.8349 40 14.8324 39.4203 16.5577 38.3236C16.9219 38.0921 17.0294 37.6093 16.798 37.2452C16.5665 36.881 16.0835 36.7735 15.7195 37.0049C14.245 37.9422 12.5376 38.4375 10.7814 38.4375C8.95329 38.4375 7.18634 37.9033 5.67173 36.8925C5.48478 36.7677 5.25313 36.7295 5.03587 36.7877L2.81087 37.3839L3.39009 35.2223C3.45048 34.9969 3.40696 34.7563 3.27142 34.5663C2.15353 32.9995 1.56267 31.1503 1.56267 29.2188C1.56267 24.1355 5.69821 20.0001 10.7813 20.0001C15.8645 20.0001 20.0001 24.1356 20.0001 29.2188C20.0001 30.3044 19.8134 31.3668 19.4453 32.3766C19.2975 32.782 19.5063 33.2304 19.9117 33.3782C20.317 33.5259 20.7656 33.3172 20.9133 32.9118C21.3441 31.73 21.5626 30.4875 21.5626 29.2188C21.5626 28.8584 21.5445 28.5023 21.5098 28.1509C22.8404 28.5484 24.2204 28.7498 25.6252 28.7498C28.506 28.7498 31.2705 27.9064 33.6444 26.3068L38.0383 27.4841C38.3081 27.5564 38.5956 27.4793 38.793 27.282C38.9903 27.0846 39.0674 26.797 38.9952 26.5273L37.7913 22.0345Z" fill="#7772F1"/>
</g>
</g>
<g id="Group_3">
<g id="Group_4">
<path id="Vector_2" d="M29.6521 16.0391H21.6948C21.2633 16.0391 20.9136 16.3888 20.9136 16.8203C20.9136 19.4449 23.0489 21.5802 25.6735 21.5802C28.2981 21.5802 30.4334 19.4449 30.4334 16.8203C30.4333 16.3888 30.0835 16.0391 29.6521 16.0391ZM25.6735 20.0176C24.1799 20.0176 22.9222 18.9881 22.5726 17.6015H28.7744C28.4247 18.9881 27.167 20.0176 25.6735 20.0176Z" fill="#7772F1"/>
</g>
</g>
<g id="Group_5">
<g id="Group_6">
<path id="Vector_3" d="M31.7584 11.7046C31.532 11.3372 31.0507 11.2229 30.6835 11.4492L30.5816 11.5121C30.2146 11.7389 30.1008 12.2203 30.3277 12.5873C30.4755 12.8265 30.7312 12.9581 30.993 12.9581C31.1331 12.9581 31.275 12.9204 31.403 12.8413L31.503 12.7795C31.8704 12.5532 31.9848 12.0719 31.7584 11.7046Z" fill="#7772F1"/>
</g>
</g>
<g id="Group_7">
<g id="Group_8">
<path id="Vector_4" d="M21.0241 11.7045C20.7977 11.3372 20.3163 11.2229 19.9492 11.4492L19.8473 11.5121C19.4802 11.7389 19.3665 12.2203 19.5934 12.5873C19.7411 12.8265 19.9969 12.958 20.2587 12.958C20.3988 12.958 20.5406 12.9204 20.6686 12.8412L20.7687 12.7794C21.136 12.5531 21.2504 12.0719 21.0241 11.7045Z" fill="#7772F1"/>
</g>
</g>
<g id="Group_9">
<g id="Group_10">
<path id="Vector_5" d="M7.03672 28.6674C6.89141 28.5221 6.68984 28.4385 6.48438 28.4385C6.27891 28.4385 6.07742 28.5221 5.93203 28.6674C5.78672 28.8127 5.70312 29.0143 5.70312 29.2197C5.70312 29.4252 5.78672 29.6268 5.93203 29.7721C6.07734 29.9174 6.27891 30.001 6.48438 30.001C6.68984 30.001 6.89141 29.9174 7.03672 29.7721C7.18203 29.6268 7.26562 29.4252 7.26562 29.2197C7.26562 29.0143 7.18203 28.8127 7.03672 28.6674Z" fill="#7772F1"/>
</g>
</g>
<g id="Group_11">
<g id="Group_12">
<path id="Vector_6" d="M11.3337 28.6674C11.1884 28.5221 10.9868 28.4385 10.7814 28.4385C10.5759 28.4385 10.3744 28.5221 10.229 28.6674C10.0837 28.8127 10.0001 29.0143 10.0001 29.2197C10.0001 29.4252 10.0837 29.6268 10.229 29.7721C10.3743 29.9174 10.5759 30.001 10.7814 30.001C10.9868 30.001 11.1884 29.9174 11.3337 29.7721C11.479 29.6268 11.5626 29.4252 11.5626 29.2197C11.5626 29.0143 11.479 28.8127 11.3337 28.6674Z" fill="#7772F1"/>
</g>
</g>
<g id="Group_13">
<g id="Group_14">
<path id="Vector_7" d="M15.6305 28.6674C15.4852 28.5221 15.2836 28.4385 15.0781 28.4385C14.8727 28.4385 14.6712 28.5221 14.5258 28.6674C14.3805 28.8127 14.2969 29.0143 14.2969 29.2197C14.2969 29.4252 14.3805 29.6268 14.5258 29.7721C14.6711 29.9174 14.8727 30.001 15.0781 30.001C15.2836 30.001 15.4852 29.9174 15.6305 29.7721C15.7758 29.6268 15.8594 29.4252 15.8594 29.2197C15.8594 29.0143 15.7758 28.8127 15.6305 28.6674Z" fill="#7772F1"/>
</g>
</g>
<g id="Group_15">
<g id="Group_16">
<path id="Vector_8" d="M19.1275 34.932C18.9822 34.7867 18.7807 34.7031 18.5752 34.7031C18.3689 34.7031 18.1682 34.7867 18.0229 34.932C17.8775 35.0773 17.7939 35.2789 17.7939 35.4844C17.7939 35.6898 17.8775 35.8914 18.0229 36.0367C18.1682 36.182 18.3689 36.2656 18.5752 36.2656C18.7807 36.2656 18.9822 36.182 19.1275 36.0367C19.2729 35.8914 19.3564 35.6898 19.3564 35.4844C19.3564 35.2789 19.2729 35.0773 19.1275 34.932Z" fill="#7772F1"/>
</g>
</g>
<g id="Group_17">
<g id="Group_18">
<path id="Vector_9" d="M16.5917 4.18516C16.4463 4.03984 16.2448 3.95703 16.0393 3.95703C15.8331 3.95703 15.6323 4.03984 15.487 4.18516C15.3409 4.33125 15.2581 4.53203 15.2581 4.73828C15.2581 4.94375 15.3409 5.14531 15.487 5.29063C15.6323 5.43594 15.833 5.51875 16.0393 5.51875C16.2448 5.51875 16.4463 5.43594 16.5917 5.29063C16.737 5.14531 16.8206 4.94375 16.8206 4.73828C16.8206 4.53203 16.737 4.33125 16.5917 4.18516Z" fill="#7772F1"/>
</g>
</g>
</g>
<defs>
<clipPath id="clip0_2196_2187">
<rect width="40" height="40" fill="white"/>
</clipPath>
</defs>
</svg>
