<svg width="40" height="40" viewBox="0 0 40 40" fill="none" xmlns="http://www.w3.org/2000/svg">
<g id="ic-cart" clip-path="url(#clip0_2196_2194)">
<g id="Group">
<g id="Group_2">
<path id="Vector" d="M27.7975 31.4789C27.6521 31.3336 27.4506 31.25 27.2443 31.25C27.0389 31.25 26.8373 31.3335 26.6928 31.4789C26.5467 31.6242 26.4639 31.825 26.4639 32.0312C26.4639 32.2367 26.5467 32.4383 26.6928 32.5835C26.8381 32.7288 27.0389 32.8125 27.2443 32.8125C27.4506 32.8125 27.6514 32.7289 27.7975 32.5835C27.9428 32.4383 28.0264 32.2367 28.0264 32.0312C28.0264 31.8258 27.9428 31.6242 27.7975 31.4789Z" fill="#7772F1"/>
</g>
</g>
<g id="Group_3">
<g id="Group_4">
<path id="Vector_2" d="M39.8445 15.9384C39.697 15.7412 39.4651 15.625 39.2188 15.625H36.0325V0.78125C36.0325 0.349844 35.6827 0 35.2512 0H20.8762C20.4447 0 20.095 0.349844 20.095 0.78125V6.79688H12.0382C11.6067 6.79688 11.2569 7.14672 11.2569 7.57812V15.625H8.35941C8.11309 15.625 7.88121 15.7412 7.73371 15.9384C7.58621 16.1357 7.54035 16.391 7.61004 16.6273L12.2184 32.2523C12.3164 32.5845 12.6214 32.8125 12.9677 32.8125H23.7891C24.2206 32.8125 24.5704 32.4627 24.5704 32.0312C24.5704 31.5998 24.2206 31.25 23.7891 31.25H13.5519L9.40441 17.1875H12.0382H26.1H35.2513H38.1739L34.0264 31.25H31.1719C30.7404 31.25 30.3907 31.5998 30.3907 32.0312C30.3907 32.4627 30.7404 32.8125 31.1719 32.8125H34.6104C34.9568 32.8125 35.2618 32.5845 35.3597 32.2523L39.9681 16.6273C40.0378 16.391 39.992 16.1357 39.8445 15.9384ZM25.3187 15.625H12.8194V8.35938H20.8762H25.3187V15.625ZM34.47 15.625H26.8813V7.57812C26.8813 7.14672 26.5315 6.79688 26.1 6.79688H21.6575V1.5625H34.47V15.625Z" fill="#7772F1"/>
</g>
</g>
<g id="Group_5">
<g id="Group_6">
<path id="Vector_3" d="M35.4766 34.2191H11.3713L4.89687 12.2673C4.79891 11.9351 4.49391 11.707 4.14758 11.707H0.78125C0.349766 11.707 0 12.0569 0 12.4883C0 12.9197 0.349766 13.2695 0.78125 13.2695H3.56344L10.0379 35.2213C10.1359 35.5535 10.4409 35.7816 10.7872 35.7816H14.6634C14.4566 36.1795 14.339 36.631 14.339 37.1097C14.339 38.7036 15.6357 40.0003 17.2296 40.0003C18.8235 40.0003 20.1202 38.7036 20.1202 37.1097C20.1202 36.631 20.0026 36.1795 19.7958 35.7816H26.1908C25.984 36.1795 25.8663 36.631 25.8663 37.1097C25.8663 38.7036 27.163 40.0003 28.757 40.0003C30.3509 40.0003 31.6476 38.7036 31.6476 37.1097C31.6476 36.631 31.5299 36.1795 31.3231 35.7816H35.4767C35.9082 35.7816 36.258 35.4317 36.258 35.0003C36.258 34.5689 35.9081 34.2191 35.4766 34.2191ZM17.2296 38.4378C16.4973 38.4378 15.9015 37.842 15.9015 37.1097C15.9015 36.3773 16.4973 35.7816 17.2296 35.7816C17.962 35.7816 18.5577 36.3773 18.5577 37.1097C18.5577 37.842 17.962 38.4378 17.2296 38.4378ZM28.7569 38.4378C28.0245 38.4378 27.4288 37.842 27.4288 37.1097C27.4288 36.3773 28.0245 35.7816 28.7569 35.7816C29.4892 35.7816 30.085 36.3773 30.085 37.1097C30.085 37.842 29.4892 38.4378 28.7569 38.4378Z" fill="#7772F1"/>
</g>
</g>
<g id="Group_7">
<g id="Group_8">
<path id="Vector_4" d="M19.6219 19.682C19.4766 19.5366 19.275 19.4531 19.0688 19.4531C18.8633 19.4531 18.6618 19.5367 18.5165 19.682C18.3711 19.8273 18.2883 20.0289 18.2883 20.2344C18.2883 20.4398 18.3711 20.6414 18.5165 20.7866C18.6625 20.932 18.8633 21.0156 19.0688 21.0156C19.275 21.0156 19.4758 20.932 19.6219 20.7866C19.7672 20.6414 19.85 20.4398 19.85 20.2344C19.85 20.0289 19.7672 19.8273 19.6219 19.682Z" fill="#7772F1"/>
</g>
</g>
<g id="Group_9">
<g id="Group_10">
<path id="Vector_5" d="M15.7829 19.4531H10.1106C9.67911 19.4531 9.32935 19.803 9.32935 20.2344C9.32935 20.6658 9.67911 21.0156 10.1106 21.0156H15.7829C16.2144 21.0156 16.5642 20.6658 16.5642 20.2344C16.5642 19.803 16.2144 19.4531 15.7829 19.4531Z" fill="#7772F1"/>
</g>
</g>
</g>
<defs>
<clipPath id="clip0_2196_2194">
<rect width="40" height="40" fill="white"/>
</clipPath>
</defs>
</svg>
