<svg width="40" height="40" viewBox="0 0 40 40" fill="none" xmlns="http://www.w3.org/2000/svg">
<g id="ic-handshake" clip-path="url(#clip0_2196_2197)">
<g id="Group">
<g id="Group_2">
<path id="Vector" d="M39.2188 13.7771C39.6502 13.7771 40 13.4273 40 12.9959V7.85352C40 7.42211 39.6502 7.07227 39.2188 7.07227H35C34.305 7.07227 33.7151 7.52867 33.5127 8.15734H22.5195C22.5112 8.1532 22.5034 8.14852 22.4949 8.14469C20.3736 7.18086 18.0436 6.90719 15.757 7.35359L9.44625 8.58508H6.56C6.53336 7.74664 5.84477 7.07227 5 7.07227H0.78125C0.349766 7.07227 0 7.42211 0 7.85352V12.876C0 13.3074 0.349766 13.6573 0.78125 13.6573C1.21273 13.6573 1.5625 13.3074 1.5625 12.876V8.63477H5V23.4463H1.5625V19.2823C1.5625 18.8509 1.21273 18.501 0.78125 18.501C0.349766 18.501 0 18.8509 0 19.2823V24.2276C0 24.659 0.349766 25.0088 0.78125 25.0088H5C5.86156 25.0088 6.5625 24.3079 6.5625 23.4463V23.4377C6.92102 23.5384 7.26023 23.7068 7.55633 23.9362L7.92109 24.2187C7.99039 24.8387 8.29055 25.4334 8.80891 25.8605C9.27094 26.241 9.83031 26.4263 10.3867 26.4263C10.4427 26.4263 10.4985 26.4238 10.5543 26.42C10.6336 27.0519 10.9455 27.6204 11.4391 28.027C11.9011 28.4075 12.4605 28.5929 13.017 28.5928C13.0729 28.5928 13.1287 28.5903 13.1845 28.5866C13.2638 29.2184 13.5757 29.787 14.0693 30.1936C14.5185 30.5635 15.0703 30.7609 15.6448 30.7609C15.7016 30.7609 15.7587 30.7582 15.8159 30.7543C15.8927 31.3613 16.191 31.9414 16.6994 32.3602C17.1486 32.7302 17.7004 32.9275 18.2749 32.9275C18.3557 32.9275 18.437 32.9235 18.5185 32.9157C19.1792 32.8519 19.7755 32.5345 20.1975 32.0222L20.8328 31.2509C21.0198 31.0241 21.1592 30.7735 21.2531 30.5115C21.623 30.709 22.0375 30.8139 22.4675 30.8139C22.4802 30.8139 22.4928 30.8138 22.5055 30.8136C23.1965 30.8038 23.8423 30.5254 24.3239 30.0298C24.578 29.7684 24.7652 29.4664 24.8866 29.1453L25.1562 29.4073C25.6582 29.8952 26.3088 30.138 26.9591 30.138C27.634 30.138 28.3084 29.8761 28.8148 29.3551C29.1023 29.0592 29.3042 28.7115 29.4219 28.3427C29.7834 28.522 30.1778 28.612 30.5723 28.612C31.2473 28.612 31.9216 28.3502 32.428 27.8291C32.9097 27.3334 33.1695 26.68 33.1596 25.9889C33.1498 25.2979 32.8714 24.6521 32.3765 24.1712L31.8337 23.6423L33.4375 22.7766V23.4463C33.4375 24.3079 34.1384 25.0088 35 25.0088H39.2188C39.6502 25.0088 40 24.659 40 24.2276V19.0479C40 18.6165 39.6502 18.2666 39.2188 18.2666C38.7873 18.2666 38.4375 18.6165 38.4375 19.0479V23.4463H35V21.4716C35 21.4695 35 21.4674 35 21.4653V8.63477H38.4375V12.9959C38.4375 13.4273 38.7873 13.7771 39.2188 13.7771ZM11.7362 23.7576L11.1009 24.5288C10.7775 24.9216 10.195 24.978 9.80234 24.6544C9.40969 24.3309 9.35336 23.7484 9.6768 23.3558L10.3122 22.5845C10.4688 22.3943 10.6902 22.2765 10.9355 22.2528C10.9657 22.2498 10.9959 22.2484 11.0259 22.2484C11.2391 22.2484 11.4441 22.3216 11.6107 22.459C12.0034 22.7824 12.0596 23.365 11.7362 23.7576ZM14.3663 25.9243L13.731 26.6955C13.4077 27.0881 12.825 27.1445 12.4324 26.821C12.2422 26.6644 12.1245 26.443 12.1007 26.1977C12.077 25.9524 12.1502 25.7127 12.307 25.5224L12.9423 24.7511C13.099 24.5609 13.3203 24.4431 13.5656 24.4195C13.5959 24.4165 13.626 24.415 13.656 24.415C13.8692 24.415 14.0742 24.4883 14.2409 24.6256C14.4311 24.7823 14.5488 25.0037 14.5726 25.249C14.5963 25.4942 14.523 25.7339 14.3663 25.9243ZM16.9966 28.0906L16.3612 28.862C16.2045 29.0522 15.9832 29.1699 15.7379 29.1936C15.4923 29.2176 15.2527 29.1442 15.0626 28.9875C14.8723 28.8309 14.7545 28.6095 14.7308 28.3641C14.7071 28.1189 14.7803 27.8791 14.937 27.6888L15.5723 26.9176C15.7545 26.6965 16.0188 26.582 16.2852 26.582C16.4918 26.582 16.6995 26.6509 16.871 26.7921C17.2637 27.1155 17.32 27.698 16.9966 28.0906ZM19.6266 30.2573L18.9912 31.0286C18.8345 31.2188 18.6131 31.3366 18.3679 31.3603C18.1223 31.3844 17.8827 31.3108 17.6926 31.1541C17.2999 30.8306 17.2436 30.248 17.567 29.8555L18.2024 29.0842C18.3591 28.894 18.5805 28.7763 18.8258 28.7526C18.856 28.7496 18.8862 28.7481 18.9162 28.7481C19.1295 28.7481 19.3344 28.8214 19.5011 28.9588C19.6913 29.1154 19.8091 29.3367 19.8328 29.582C19.8565 29.8273 19.7833 30.0671 19.6266 30.2573ZM31.3073 26.7398C30.9134 27.1452 30.2634 27.1544 29.8582 26.7606L27.268 24.2433C27.2651 24.2405 27.262 24.2382 27.2591 24.2354L24.7073 21.7555C24.398 21.4548 23.9033 21.462 23.6026 21.7713C23.3019 22.0807 23.3089 22.5753 23.6184 22.876L27.6732 26.8167C28.0784 27.2105 28.0877 27.8606 27.6939 28.2659C27.3002 28.6712 26.6501 28.6804 26.2448 28.2866L22.1899 24.3459C22.1818 24.338 22.173 24.3312 22.1645 24.3237L20.2163 22.4304C19.907 22.1297 19.4123 22.1368 19.1116 22.4461C18.8109 22.7555 18.8179 23.2502 19.1273 23.5509L23.1822 27.4916C23.5874 27.8854 23.5967 28.5355 23.2029 28.9407C23.0121 29.137 22.7563 29.2473 22.4827 29.2512C22.2105 29.2561 21.9502 29.1521 21.7538 28.9613L20.6182 27.8577C20.5927 27.833 20.5655 27.8111 20.5377 27.7905C20.5232 27.778 20.5091 27.765 20.4942 27.7527C19.9855 27.3338 19.3585 27.152 18.7477 27.1932C18.6712 26.5859 18.3728 26.0052 17.8641 25.5862C17.3558 25.1674 16.7292 24.9856 16.1188 25.0266C16.0395 24.3948 15.7277 23.8262 15.2341 23.4196C14.7405 23.013 14.1224 22.8157 13.4874 22.8589C13.4107 22.252 13.1123 21.6718 12.604 21.253C12.0916 20.831 11.4459 20.6341 10.7849 20.6976C10.1242 20.7614 9.52797 21.0788 9.10594 21.5911L8.47055 22.3623C8.41719 22.4271 8.36781 22.4938 8.32211 22.5622C7.79477 22.1973 7.19172 21.9499 6.56227 21.8371V10.1476H9.52148C9.57172 10.1476 9.6218 10.1427 9.67117 10.133L16.0561 8.88711C17.1394 8.67578 18.2339 8.65336 19.3037 8.81359C18.4954 9.17711 17.7503 9.68594 17.1022 10.3273L11.1871 16.1798C10.1145 17.2411 10.095 18.9871 11.1438 20.0719C11.6795 20.6262 12.403 20.9163 13.1354 20.9163C13.6007 20.9162 14.0696 20.7991 14.4961 20.5581L20.6946 17.0561H22.8348L31.2865 25.2909C31.4828 25.4816 31.593 25.7374 31.597 26.0112C31.601 26.2848 31.498 26.5436 31.3073 26.7398ZM33.4375 21.001L30.6607 22.4995L25.0738 17.056H25.6224C26.0539 17.056 26.4037 16.7062 26.4037 16.2748C26.4037 15.8434 26.0539 15.4935 25.6224 15.4935H20.4893C20.3546 15.4935 20.2223 15.5283 20.105 15.5946L13.7276 19.1977C13.2495 19.4679 12.649 19.3807 12.2673 18.9859C11.8104 18.5133 11.8189 17.7527 12.2862 17.2905L18.2013 11.4379C19.321 10.3299 20.8053 9.71984 22.3805 9.71984H33.4375V21.001Z" fill="#7772F1"/>
</g>
</g>
<g id="Group_3">
<g id="Group_4">
<path id="Vector_2" d="M39.7711 15.4887C39.6258 15.3426 39.4242 15.2598 39.2188 15.2598C39.0133 15.2598 38.8117 15.3426 38.6664 15.4887C38.5211 15.634 38.4375 15.8348 38.4375 16.041C38.4375 16.2465 38.5211 16.448 38.6664 16.5934C38.8117 16.7386 39.0133 16.8223 39.2188 16.8223C39.4242 16.8223 39.6258 16.7387 39.7711 16.5934C39.9164 16.4473 40 16.2465 40 16.041C40 15.8348 39.9164 15.634 39.7711 15.4887Z" fill="#7772F1"/>
</g>
</g>
<g id="Group_5">
<g id="Group_6">
<path id="Vector_3" d="M1.33359 15.4887C1.18828 15.3426 0.986719 15.2598 0.78125 15.2598C0.575781 15.2598 0.374219 15.3426 0.228906 15.4887C0.0835938 15.634 0 15.8348 0 16.041C0 16.2465 0.0835938 16.4473 0.228906 16.5934C0.374219 16.7387 0.575781 16.8223 0.78125 16.8223C0.986719 16.8223 1.18828 16.7387 1.33359 16.5934C1.47891 16.4473 1.5625 16.2465 1.5625 16.041C1.5625 15.8348 1.47891 15.634 1.33359 15.4887Z" fill="#7772F1"/>
</g>
</g>
</g>
<defs>
<clipPath id="clip0_2196_2197">
<rect width="40" height="40" fill="white"/>
</clipPath>
</defs>
</svg>
