<svg width="40" height="40" viewBox="0 0 40 40" fill="none" xmlns="http://www.w3.org/2000/svg">
<g id="ic-idea">
<g id="Group">
<g id="Group_2">
<path id="Vector" d="M27.8816 9.72898C25.7727 7.63484 22.9799 6.48438 20.0098 6.48438C19.9828 6.48438 19.9556 6.48453 19.9285 6.48469C16.7159 6.50734 13.661 7.92578 11.5472 10.3762C11.2654 10.7029 11.3017 11.1962 11.6284 11.478C11.9552 11.7599 12.4485 11.7234 12.7303 11.3968C14.5498 9.28758 17.1776 8.06664 19.9395 8.04719C19.963 8.04703 19.9862 8.04688 20.0095 8.04688C22.5643 8.04688 24.9668 9.03656 26.7808 10.8378C28.6118 12.6558 29.6201 15.078 29.6201 17.6581C29.6201 20.1221 28.6887 22.4652 26.9976 24.2557C25.2219 26.1355 24.1797 28.5149 24.0233 31.016H22.5001V22.7349H22.9949C24.1294 22.7349 25.0522 21.812 25.0522 20.6777V20.5735C25.0522 19.4391 24.1293 18.5163 22.9949 18.5163C21.8605 18.5163 20.9377 19.4392 20.9377 20.5735V21.1725H19.0628V20.5735C19.0628 19.4391 18.1399 18.5163 17.0056 18.5163H16.8733C15.7388 18.5163 14.8161 19.4392 14.8161 20.5735V20.6777C14.8161 21.8122 15.739 22.7349 16.8733 22.7349H17.5004V31.0159H15.9958C15.8442 28.487 14.8227 26.1297 13.0811 24.3191C11.2826 22.4491 10.3309 19.9881 10.4015 17.3895C10.4133 16.9582 10.0732 16.5991 9.64178 16.5873C9.20858 16.5727 8.85139 16.9157 8.83959 17.3471C8.75748 20.3675 9.86381 23.2281 11.9549 25.4023C13.5658 27.077 14.4529 29.3048 14.4529 31.6757V31.7972V33.9364C14.4529 35.6074 15.7201 36.9874 17.344 37.1673V37.3439C17.3439 38.8086 18.5354 40.0002 20.0001 40.0002C21.4647 40.0002 22.6562 38.8086 22.6562 37.344V37.1696C24.2887 36.9979 25.565 35.6136 25.565 33.9365V31.7973V31.676C25.565 29.3363 26.4771 27.082 28.1332 25.3286C30.0995 23.247 31.1824 20.5227 31.1824 17.658C31.1825 14.6584 30.0102 11.8426 27.8816 9.72898ZM22.5001 20.5735C22.5001 20.3007 22.7221 20.0788 22.9949 20.0788C23.2677 20.0788 23.4897 20.3007 23.4897 20.5735V20.6777C23.4897 20.9505 23.2677 21.1725 22.9949 21.1725H22.5001V20.5735ZM19.0627 22.7349H20.9376V31.0159H19.0627V22.7349ZM16.8731 21.1725C16.6003 21.1725 16.3783 20.9505 16.3783 20.6777V20.5735C16.3783 20.3007 16.6003 20.0788 16.8731 20.0788H17.0054C17.2783 20.0788 17.5002 20.3007 17.5002 20.5735V21.1725H16.8731ZM21.0939 37.344C21.0939 37.9471 20.6033 38.4377 20.0001 38.4377C19.397 38.4377 18.9064 37.9471 18.9064 37.344V37.1877H21.0939V37.344ZM24.0026 33.9365C24.0026 34.8677 23.2451 35.6253 22.3138 35.6253H21.8751H18.1252H17.7041C16.7729 35.6253 16.0153 34.8677 16.0153 33.9365V32.5784H24.0026V33.9365Z" fill="#7772F1"/>
</g>
</g>
<g id="Group_3">
<g id="Group_4">
<path id="Vector_2" d="M20 0C19.5686 0 19.2188 0.349844 19.2188 0.78125V3.69875C19.2188 4.13016 19.5685 4.48 20 4.48C20.4314 4.48 20.7812 4.13016 20.7812 3.69875V0.78125C20.7812 0.349844 20.4314 0 20 0Z" fill="#7772F1"/>
</g>
</g>
<g id="Group_5">
<g id="Group_6">
<path id="Vector_3" d="M36.8767 16.877H33.9592C33.5278 16.877 33.178 17.2268 33.178 17.6582C33.178 18.0896 33.5278 18.4395 33.9592 18.4395H36.8767C37.3081 18.4395 37.658 18.0896 37.658 17.6582C37.658 17.2268 37.3082 16.877 36.8767 16.877Z" fill="#7772F1"/>
</g>
</g>
<g id="Group_7">
<g id="Group_8">
<path id="Vector_4" d="M6.04092 16.877H3.12341C2.69201 16.877 2.34216 17.2268 2.34216 17.6582C2.34216 18.0896 2.69201 18.4395 3.12341 18.4395H6.04092C6.47232 18.4395 6.82217 18.0896 6.82217 17.6582C6.82217 17.2268 6.4724 16.877 6.04092 16.877Z" fill="#7772F1"/>
</g>
</g>
<g id="Group_9">
<g id="Group_10">
<path id="Vector_5" d="M10.6815 7.23508L8.61864 5.17211C8.31356 4.86719 7.81903 4.86703 7.51372 5.17211C7.20864 5.47719 7.20864 5.97188 7.51372 6.27703L9.57661 8.34C9.72927 8.4925 9.92919 8.56883 10.1291 8.56883C10.329 8.56883 10.529 8.4925 10.6815 8.34C10.9866 8.03492 10.9866 7.54023 10.6815 7.23508Z" fill="#7772F1"/>
</g>
</g>
<g id="Group_11">
<g id="Group_12">
<path id="Vector_6" d="M32.486 5.17211C32.1809 4.86711 31.6863 4.86711 31.3812 5.17211L29.3183 7.23508C29.0132 7.54016 29.0132 8.03484 29.3183 8.34C29.4709 8.4925 29.6708 8.56883 29.8707 8.56883C30.0706 8.56883 30.2705 8.4925 30.4231 8.34L32.486 6.27703C32.7911 5.97195 32.7911 5.47727 32.486 5.17211Z" fill="#7772F1"/>
</g>
</g>
<g id="Group_13">
<g id="Group_14">
<path id="Vector_7" d="M27.3134 14.7077C26.728 13.2547 25.7325 12.0181 24.4346 11.1316C23.1196 10.2335 21.5826 9.75977 19.9854 9.75977C19.9665 9.75977 19.9473 9.75984 19.9284 9.75992C19.4969 9.76297 19.1496 10.1152 19.1526 10.5466C19.1557 10.9762 19.5049 11.3224 19.9338 11.3224C19.9356 11.3224 19.9375 11.3224 19.9393 11.3224C19.9549 11.3223 19.9701 11.3223 19.9856 11.3223C22.5869 11.3223 24.8912 12.8763 25.8642 15.2916C25.9868 15.5961 26.2796 15.7812 26.589 15.7812C26.6862 15.7812 26.7851 15.7629 26.8806 15.7243C27.2809 15.563 27.4746 15.1078 27.3134 14.7077Z" fill="#7772F1"/>
</g>
</g>
<g id="Group_15">
<g id="Group_16">
<path id="Vector_8" d="M27.6543 17.1059C27.5091 16.9606 27.3075 16.877 27.1021 16.877C26.8957 16.877 26.6942 16.9606 26.5489 17.1059C26.4036 17.2512 26.3208 17.4527 26.3208 17.6582C26.3208 17.8637 26.4036 18.0652 26.5489 18.2105C26.6942 18.3559 26.8957 18.4395 27.1021 18.4395C27.3075 18.4395 27.5091 18.3559 27.6543 18.2105C27.7996 18.0652 27.8824 17.8637 27.8824 17.6582C27.8824 17.4527 27.7996 17.2512 27.6543 17.1059Z" fill="#7772F1"/>
</g>
</g>
<g id="Group_17">
<g id="Group_18">
<path id="Vector_9" d="M10.9822 13.0807C10.837 12.9354 10.6354 12.8525 10.4299 12.8525C10.2245 12.8525 10.0229 12.9353 9.87759 13.0807C9.73228 13.2268 9.64868 13.4275 9.64868 13.6338C9.64868 13.8393 9.7322 14.04 9.87759 14.1861C10.0229 14.3314 10.2245 14.415 10.4299 14.415C10.6354 14.415 10.837 14.3314 10.9822 14.1861C11.1275 14.04 11.2112 13.8393 11.2112 13.6338C11.2112 13.4275 11.1276 13.2268 10.9822 13.0807Z" fill="#7772F1"/>
</g>
</g>
</g>
</svg>
