<svg width="40" height="40" viewBox="0 0 40 40" fill="none" xmlns="http://www.w3.org/2000/svg">
<g id="ic-management" clip-path="url(#clip0_2196_2196)">
<g id="Group">
<g id="Group_2">
<path id="Vector" d="M23.7936 10.3148H23.4721C24.2039 9.49281 24.6496 8.41086 24.6496 7.22625V5.58266V4.82227V4.65117C24.6496 2.08648 22.5632 0 19.9986 0C17.434 0 15.3476 2.08648 15.3476 4.65109V4.82219V5.58258V7.22625C15.3476 8.41078 15.7934 9.49273 16.5252 10.3148H16.2036C13.0158 10.3148 10.4224 12.9083 10.4224 16.0961V20C10.4224 20.4315 10.7721 20.7812 11.2036 20.7812H28.7936C29.225 20.7812 29.5749 20.4315 29.5749 20V16.0961C29.5749 12.9083 26.9814 10.3148 23.7936 10.3148ZM19.9986 1.5625C21.5478 1.5625 22.8342 2.70898 23.054 4.19805L21.6754 3.38812C21.3464 3.19477 20.926 3.26758 20.6809 3.55992C20.0198 4.34891 19.0503 4.80133 18.021 4.80133H16.9101V4.65109C16.9101 2.94805 18.2956 1.5625 19.9986 1.5625ZM16.9101 6.36391H18.021C19.2885 6.36391 20.4935 5.89078 21.4153 5.0475L23.0871 6.02977V7.22633C23.0871 8.92937 21.7017 10.3149 19.9986 10.3149C18.2956 10.3149 16.9101 8.9293 16.9101 7.22633V6.36391ZM28.0124 19.2188H11.9849V16.0961C11.9849 13.7698 13.8774 11.8773 16.2036 11.8773H19.2174V13.4375C19.2174 13.869 19.5672 14.2188 19.9986 14.2188C20.43 14.2188 20.7799 13.869 20.7799 13.4375V11.8773H23.7936C26.1198 11.8773 28.0124 13.7698 28.0124 16.0961V19.2188Z" fill="#7772F1"/>
</g>
</g>
<g id="Group_3">
<g id="Group_4">
<path id="Vector_2" d="M12.0312 31.1605H10.9535C11.364 30.5717 11.6056 29.8568 11.6056 29.0861V28.3722C11.6056 26.3668 9.97414 24.7354 7.96875 24.7354C5.96336 24.7354 4.33188 26.3668 4.33188 28.3722V29.0861C4.33188 29.8568 4.57352 30.5717 4.98398 31.1605H3.90625C1.75234 31.1605 0 32.9129 0 35.0668V39.2183C0 39.6497 0.349844 39.9995 0.78125 39.9995H15.1562C15.5877 39.9995 15.9375 39.6497 15.9375 39.2183V35.0668C15.9375 32.9129 14.1852 31.1605 12.0312 31.1605ZM5.89437 28.3722C5.89437 27.2284 6.82492 26.2979 7.96875 26.2979C9.11258 26.2979 10.0431 27.2284 10.0431 28.3722V29.0861C10.0431 30.23 9.11258 31.1605 7.96875 31.1605C6.82492 31.1605 5.89437 30.23 5.89437 29.0861V28.3722ZM14.375 38.437H1.5625V35.0668C1.5625 33.7744 2.61391 32.723 3.90625 32.723H7.1875V34.2964C7.1875 34.7279 7.53734 35.0776 7.96875 35.0776C8.40016 35.0776 8.75 34.7279 8.75 34.2964V32.723H12.0312C13.3236 32.723 14.375 33.7744 14.375 35.0668V38.437Z" fill="#7772F1"/>
</g>
</g>
<g id="Group_5">
<g id="Group_6">
<path id="Vector_3" d="M36.0938 31.1605H35.016C35.4265 30.5717 35.6681 29.8568 35.6681 29.0861V28.3722C35.6681 26.3668 34.0366 24.7354 32.0312 24.7354C30.0259 24.7354 28.3944 26.3668 28.3944 28.3722V29.0861C28.3944 29.8568 28.636 30.5717 29.0465 31.1605H27.9688C25.8148 31.1605 24.0625 32.9129 24.0625 35.0668V39.2183C24.0625 39.6497 24.4123 39.9995 24.8438 39.9995H39.2188C39.6502 39.9995 40 39.6497 40 39.2183V35.0668C40 32.9129 38.2477 31.1605 36.0938 31.1605ZM29.9569 28.3722C29.9569 27.2284 30.8874 26.2979 32.0312 26.2979C33.1751 26.2979 34.1056 27.2284 34.1056 28.3722V29.0861C34.1056 30.23 33.1751 31.1605 32.0312 31.1605C30.8874 31.1605 29.9569 30.23 29.9569 29.0861V28.3722ZM38.4375 38.437H25.625V35.0668C25.625 33.7744 26.6764 32.723 27.9688 32.723H31.25V34.2964C31.25 34.7279 31.5998 35.0776 32.0312 35.0776C32.4627 35.0776 32.8125 34.7279 32.8125 34.2964V32.723H36.0938C37.3861 32.723 38.4375 33.7744 38.4375 35.0668V38.437Z" fill="#7772F1"/>
</g>
</g>
<g id="Group_7">
<g id="Group_8">
<path id="Vector_4" d="M24.8729 30.4631L20.7813 26.3716V23.0859C20.7813 22.6545 20.4315 22.3047 20.0001 22.3047C19.5687 22.3047 19.2188 22.6545 19.2188 23.0859V26.3716L15.1272 30.4632C14.8222 30.7683 14.8222 31.263 15.1272 31.5681C15.4324 31.8732 15.9269 31.8732 16.2322 31.5681L20.0001 27.8001L23.768 31.5681C23.9205 31.7206 24.1204 31.7969 24.3204 31.7969C24.5203 31.7969 24.7203 31.7206 24.8729 31.5681C25.178 31.263 25.178 30.7683 24.8729 30.4631Z" fill="#7772F1"/>
</g>
</g>
<g id="Group_9">
<g id="Group_10">
<path id="Vector_5" d="M20.5523 15.893C20.407 15.7477 20.2055 15.6641 20 15.6641C19.7945 15.6641 19.593 15.7477 19.4477 15.893C19.3023 16.0383 19.2188 16.2398 19.2188 16.4453C19.2188 16.6508 19.3023 16.8523 19.4477 16.9977C19.593 17.143 19.7945 17.2266 20 17.2266C20.2055 17.2266 20.407 17.143 20.5523 16.9977C20.6976 16.8523 20.7812 16.6508 20.7812 16.4453C20.7812 16.2398 20.6977 16.0383 20.5523 15.893Z" fill="#7772F1"/>
</g>
</g>
</g>
<defs>
<clipPath id="clip0_2196_2196">
<rect width="40" height="40" fill="white"/>
</clipPath>
</defs>
</svg>
