<svg width="40" height="40" viewBox="0 0 40 40" fill="none" xmlns="http://www.w3.org/2000/svg">
<g id="ic-startup" clip-path="url(#clip0_2196_2191)">
<g id="Group">
<g id="Group_2">
<path id="Vector" d="M39.3698 1.34171C39.3525 1.16765 39.277 0.999837 39.1472 0.868978L39.1389 0.86054C39.0073 0.727806 38.8372 0.650384 38.6604 0.632962C34.5076 -0.311647 30.1519 -0.19235 26.0569 0.97929C21.9259 2.16109 18.1365 4.39171 15.0983 7.42991L14.5782 7.95007H7.45326C7.24607 7.95007 7.0474 8.03242 6.90084 8.1789L0.228727 14.8509C-0.0763515 15.156 -0.0763515 15.6508 0.228727 15.9559L3.40052 19.1278L2.69224 19.8361C2.38716 20.1412 2.38716 20.6359 2.69224 20.9411L5.39974 23.6486L3.2742 27.4108C3.10162 27.7163 3.15388 28.0994 3.40201 28.3476L4.38974 29.3353C2.73443 31.1675 1.53037 33.3749 0.892555 35.7666L0.0263047 39.0143C-0.0455703 39.2837 0.0315391 39.5709 0.228727 39.7681C0.377164 39.9165 0.576695 39.9969 0.781227 39.9969C0.848258 39.9969 0.915992 39.9884 0.982477 39.9705L4.23013 39.1043C6.62177 38.4665 8.82927 37.2624 10.6615 35.6069L11.6472 36.5927C11.7977 36.743 11.9976 36.8215 12.1999 36.8215C12.3313 36.8215 12.4636 36.7884 12.584 36.7205L16.3462 34.595L19.0616 37.3104C19.2142 37.4629 19.4141 37.5392 19.614 37.5392C19.814 37.5392 20.0139 37.4629 20.1665 37.3104L20.8748 36.602L24.0347 39.762C24.1813 39.9085 24.38 39.9909 24.5872 39.9909C24.7944 39.9909 24.993 39.9085 25.1396 39.762L31.8116 33.09C31.9581 32.9434 32.0404 32.7448 32.0404 32.5376V25.4363L32.5725 24.9043C35.6106 21.8661 37.8412 18.0766 39.0231 13.9458C40.1951 9.85046 40.3144 5.4946 39.3698 1.34171ZM1.88615 15.4034L7.77693 9.51265H13.0155L5.93529 16.593C5.93513 16.5931 5.9349 16.5933 5.93474 16.5935C5.93459 16.5937 5.93443 16.5939 5.9342 16.5941L4.50552 18.0228L1.88615 15.4034ZM3.82755 37.5944L1.88396 38.1128L2.40232 36.1692C2.96943 34.0429 4.03373 32.0782 5.49591 30.4412L9.55537 34.5007C7.91849 35.963 5.95388 37.0274 3.82755 37.5944ZM12.3325 35.0679L11.2912 34.0266C11.2733 34.0041 11.2541 33.9823 11.2333 33.9615C11.2126 33.9407 11.1907 33.9216 11.1683 33.9037L6.09326 28.8287C6.07529 28.8062 6.05615 28.7844 6.03537 28.7635C6.01459 28.7427 5.99271 28.7237 5.97029 28.7057L4.92693 27.6624L6.54662 24.7953L15.1996 33.4483L12.3325 35.0679ZM30.4783 32.214L24.5876 38.1048L21.9801 35.4972L30.4783 26.999V32.214ZM31.468 23.7994L20.3234 34.944C20.3232 34.9442 20.3229 34.9444 20.3226 34.9447C20.3224 34.9449 20.3222 34.9452 20.3219 34.9455L19.6144 35.653L17.0317 33.0704L17.0316 33.0703L6.92459 22.9634C6.92443 22.9632 6.9242 22.963 6.92404 22.9628L4.34966 20.3885L6.48724 18.2509L16.9143 28.678C17.0669 28.8305 17.2668 28.9068 17.4667 28.9068C17.6666 28.9068 17.8665 28.8305 18.0191 28.678C18.3242 28.3729 18.3242 27.8781 18.0191 27.573L7.59216 17.1459L16.2033 8.53476C21.9357 2.80226 30.0249 0.406087 37.9304 2.07249C39.5966 9.97796 37.2004 18.0669 31.468 23.7994Z" fill="#7772F1"/>
</g>
</g>
<g id="Group_3">
<g id="Group_4">
<path id="Vector_2" d="M29.1128 15.8828C28.6814 15.8828 28.3315 16.2327 28.3315 16.6641L28.3312 16.7137C28.3277 17.1452 28.6746 17.4977 29.1061 17.5013C29.1083 17.5013 29.1105 17.5013 29.1127 17.5013C29.5411 17.5013 29.8903 17.1555 29.8939 16.7263L29.8942 16.6641C29.8941 16.2327 29.5443 15.8828 29.1128 15.8828Z" fill="#7772F1"/>
</g>
</g>
<g id="Group_5">
<g id="Group_6">
<path id="Vector_3" d="M28.7203 18.9019C28.3476 18.6842 27.8692 18.8099 27.6515 19.1825C26.7571 20.7137 25.1013 21.6649 23.3303 21.6649C20.5732 21.6649 18.33 19.4218 18.33 16.6646C18.33 13.9074 20.5732 11.6643 23.3303 11.6643C24.8125 11.6643 26.2096 12.3163 27.1633 13.4531C27.4407 13.7839 27.9337 13.8267 28.264 13.5495C28.5946 13.2723 28.6378 12.7795 28.3604 12.4488C27.1091 10.9571 25.2757 10.1016 23.3303 10.1016C19.7116 10.1016 16.7675 13.0457 16.7675 16.6644C16.7675 20.2832 19.7116 23.2273 23.3303 23.2273C25.6545 23.2273 27.8273 21.9794 29.0007 19.9705C29.2185 19.5981 29.0928 19.1197 28.7203 18.9019Z" fill="#7772F1"/>
</g>
</g>
<g id="Group_7">
<g id="Group_8">
<path id="Vector_4" d="M19.8525 29.4067C19.7072 29.2605 19.5064 29.1777 19.3002 29.1777C19.0947 29.1777 18.8931 29.2606 18.7479 29.4067C18.6026 29.552 18.5189 29.7528 18.5189 29.959C18.5189 30.1645 18.6025 30.366 18.7479 30.5113C18.8931 30.6566 19.0947 30.7402 19.3002 30.7402C19.5065 30.7402 19.7072 30.6567 19.8525 30.5113C19.9986 30.3652 20.0814 30.1645 20.0814 29.959C20.0814 29.7535 19.9986 29.552 19.8525 29.4067Z" fill="#7772F1"/>
</g>
</g>
</g>
<defs>
<clipPath id="clip0_2196_2191">
<rect width="40" height="40" fill="white"/>
</clipPath>
</defs>
</svg>
