<svg width="40" height="40" viewBox="0 0 40 40" fill="none" xmlns="http://www.w3.org/2000/svg">
<g id="ic-website" clip-path="url(#clip0_2196_2192)">
<g id="Group">
<g id="Group_2">
<path id="Vector" d="M36.4844 0H3.51562C1.57711 0 0 1.57711 0 3.51562V39.2188C0 39.6502 0.349766 40 0.78125 40H39.2188C39.6502 40 40 39.6502 40 39.2188V3.51562C40 1.57711 38.4229 0 36.4844 0ZM38.4375 38.4375H1.5625V9.0625H31.4844C31.9159 9.0625 32.2656 8.71273 32.2656 8.28125C32.2656 7.84977 31.9159 7.5 31.4844 7.5H1.5625V3.51562C1.5625 2.43867 2.43867 1.5625 3.51562 1.5625H36.4844C37.5613 1.5625 38.4375 2.43867 38.4375 3.51562V38.4375Z" fill="#7772F1"/>
</g>
</g>
<g id="Group_3">
<g id="Group_4">
<path id="Vector_2" d="M6.5625 2.1875C5.27016 2.1875 4.21875 3.23891 4.21875 4.53125C4.21875 5.82359 5.27016 6.875 6.5625 6.875C7.85484 6.875 8.90625 5.82359 8.90625 4.53125C8.90625 3.23891 7.85484 2.1875 6.5625 2.1875ZM6.5625 5.3125C6.13172 5.3125 5.78125 4.96203 5.78125 4.53125C5.78125 4.10047 6.13172 3.75 6.5625 3.75C6.99328 3.75 7.34375 4.10047 7.34375 4.53125C7.34375 4.96203 6.99328 5.3125 6.5625 5.3125Z" fill="#7772F1"/>
</g>
</g>
<g id="Group_5">
<g id="Group_6">
<path id="Vector_3" d="M12.5618 2.1875C11.2694 2.1875 10.218 3.23891 10.218 4.53125C10.218 5.82359 11.2694 6.875 12.5618 6.875C13.8541 6.875 14.9055 5.82359 14.9055 4.53125C14.9055 3.23891 13.8541 2.1875 12.5618 2.1875ZM12.5618 5.3125C12.131 5.3125 11.7805 4.96203 11.7805 4.53125C11.7805 4.10047 12.131 3.75 12.5618 3.75C12.9925 3.75 13.343 4.10047 13.343 4.53125C13.343 4.96203 12.9925 5.3125 12.5618 5.3125Z" fill="#7772F1"/>
</g>
</g>
<g id="Group_7">
<g id="Group_8">
<path id="Vector_4" d="M18.561 2.1875C17.2687 2.1875 16.2173 3.23891 16.2173 4.53125C16.2173 5.82359 17.2687 6.875 18.561 6.875C19.8534 6.875 20.9048 5.82359 20.9048 4.53125C20.9048 3.23891 19.8534 2.1875 18.561 2.1875ZM18.561 5.3125C18.1303 5.3125 17.7798 4.96203 17.7798 4.53125C17.7798 4.10047 18.1303 3.75 18.561 3.75C18.9918 3.75 19.3423 4.10047 19.3423 4.53125C19.3423 4.96203 18.9918 5.3125 18.561 5.3125Z" fill="#7772F1"/>
</g>
</g>
<g id="Group_9">
<g id="Group_10">
<path id="Vector_5" d="M35 11.1396H23.6719C23.2404 11.1396 22.8906 11.4894 22.8906 11.9209C22.8906 12.3524 23.2404 12.7022 23.6719 12.7022H34.2188V21.7647H5.78125V12.7022H16.4062C16.8377 12.7022 17.1875 12.3524 17.1875 11.9209C17.1875 11.4894 16.8377 11.1396 16.4062 11.1396H5C4.56852 11.1396 4.21875 11.4894 4.21875 11.9209V22.5459C4.21875 22.9774 4.56852 23.3272 5 23.3272H35C35.4315 23.3272 35.7812 22.9774 35.7812 22.5459V11.9209C35.7812 11.4895 35.4315 11.1396 35 11.1396Z" fill="#7772F1"/>
</g>
</g>
<g id="Group_11">
<g id="Group_12">
<path id="Vector_6" d="M13.125 26.0938H5C4.56852 26.0938 4.21875 26.4435 4.21875 26.875V35C4.21875 35.4315 4.56852 35.7812 5 35.7812H13.125C13.5565 35.7812 13.9062 35.4315 13.9062 35V26.875C13.9062 26.4435 13.5565 26.0938 13.125 26.0938ZM12.3438 34.2188H5.78125V27.6562H12.3438V34.2188Z" fill="#7772F1"/>
</g>
</g>
<g id="Group_13">
<g id="Group_14">
<path id="Vector_7" d="M24.0625 26.0938H15.9375C15.506 26.0938 15.1562 26.4435 15.1562 26.875V35C15.1562 35.4315 15.506 35.7812 15.9375 35.7812H24.0625C24.494 35.7812 24.8438 35.4315 24.8438 35V26.875C24.8438 26.4435 24.494 26.0938 24.0625 26.0938ZM23.2812 34.2188H16.7188V27.6562H23.2812V34.2188Z" fill="#7772F1"/>
</g>
</g>
<g id="Group_15">
<g id="Group_16">
<path id="Vector_8" d="M35 26.0938H26.875C26.4435 26.0938 26.0938 26.4435 26.0938 26.875V35C26.0938 35.4315 26.4435 35.7812 26.875 35.7812H35C35.4315 35.7812 35.7812 35.4315 35.7812 35V26.875C35.7812 26.4435 35.4315 26.0938 35 26.0938ZM34.2188 34.2188H27.6562V27.6562H34.2188V34.2188Z" fill="#7772F1"/>
</g>
</g>
<g id="Group_17">
<g id="Group_18">
<path id="Vector_9" d="M35.5523 7.72891C35.407 7.58359 35.2055 7.5 35 7.5C34.7945 7.5 34.593 7.58359 34.4477 7.72891C34.3023 7.87422 34.2188 8.07578 34.2188 8.28125C34.2188 8.48672 34.3023 8.68828 34.4477 8.83359C34.593 8.97891 34.7945 9.0625 35 9.0625C35.2055 9.0625 35.407 8.97891 35.5523 8.83359C35.6977 8.68828 35.7812 8.48672 35.7812 8.28125C35.7812 8.07578 35.6977 7.87422 35.5523 7.72891Z" fill="#7772F1"/>
</g>
</g>
<g id="Group_19">
<g id="Group_20">
<path id="Vector_10" d="M20.6757 11.3676C20.5304 11.2223 20.3297 11.1387 20.1234 11.1387C19.9179 11.1387 19.7164 11.2223 19.5711 11.3676C19.4258 11.5129 19.3422 11.7145 19.3422 11.9199C19.3422 12.1262 19.4258 12.327 19.5711 12.4723C19.7164 12.6184 19.9179 12.7012 20.1234 12.7012C20.3289 12.7012 20.5304 12.6184 20.6757 12.4723C20.8211 12.327 20.9046 12.1262 20.9046 11.9199C20.9046 11.7145 20.8211 11.5129 20.6757 11.3676Z" fill="#7772F1"/>
</g>
</g>
</g>
<defs>
<clipPath id="clip0_2196_2192">
<rect width="40" height="40" fill="white"/>
</clipPath>
</defs>
</svg>
