<svg width="120" height="64" fill="none" xmlns="http://www.w3.org/2000/svg"><path d="M37.708 21.097c-1.05.377-1.498.995-1.504 2.071-.005 1.123.468 1.731 2.056 2.641.681.391 1.268.867 1.306 1.06.174.904-1.13 1.208-2.741.64L36 27.218v.784c0 1.006.453 1.269 2.2 1.279 1.522.009 2.443-.397 2.897-1.274.724-1.401.122-2.547-1.906-3.628-1.222-.651-1.598-1.188-1.183-1.689.276-.332 1.519-.384 2.28-.094.466.177.54.134.785-.45.259-.618.248-.656-.251-.871-.935-.402-2.276-.479-3.114-.178M43.4 25.1v4.1h5.025l-.062-.65-.063-.65-1.55-.058-1.55-.059V25.818l1.35-.059 1.35-.059.062-.75.062-.75H45.2v-1.783l1.55-.059 1.55-.058.063-.65.062-.65H43.4v4.1m7.2 0v4.1h1.6l.002-3.05.001-3.05 1.738 3.05 1.739 3.05H58V21h-1.59l-.055 2.993-.055 2.994-1.7-2.992-1.7-2.992-1.15-.002L50.6 21v4.1m9.6-3.4v.7h2.2v6.8h1.79l.055-3.35.055-3.35 1.05-.06 1.05-.061V21h-6.2v.7m8.2 3.4v4.1h1.8V21h-1.8v4.1m4.2-.01v4.11h1.65l-.086-3c-.047-1.651-.02-2.933.059-2.85.079.082.858 1.41 1.731 2.95l1.587 2.8 1.229.06 1.23.059V21h-1.59l-.055 3.044-.055 3.044-1.726-2.994-1.726-2.994-1.124-.06-1.124-.06v4.11m12.01-3.616c-.099.261-.449 1.229-.776 2.15a690.53 690.53 0 0 1-1.306 3.626l-.711 1.95h1.951l.315-.95.316-.95 1.45.025 1.451.025.3.924.3.924.971.001c.693.001.946-.071.881-.249-.05-.137-.704-1.982-1.455-4.1L86.932 21h-1.071c-.943 0-1.092.057-1.251.474M91.6 25.1v4.1h5.2v-1.4h-3.4V21h-1.8v4.1m-4.854.621c-.057.056-.508.075-1.002.041l-.899-.062.388-1.3c.213-.715.441-1.435.506-1.6.069-.175.325.349.614 1.259.273.857.45 1.605.393 1.662m-47.902 5.913c-1.666.373-2.654 1.943-2.635 4.189.022 2.719 1.261 4.036 3.796 4.036 1.707 0 2.239-.277 2.157-1.122-.044-.451-.15-.614-.362-.558-.165.044-.801.121-1.414.172-.971.08-1.188.028-1.689-.403-.503-.432-.585-.66-.659-1.823-.142-2.223.607-3.252 2.233-3.068.456.052 1.02.158 1.254.235.352.117.462.032.65-.505.124-.356.225-.675.225-.709 0-.111-2.063-.679-2.386-.657-.173.012-.699.108-1.17.213m8.024-.042c-1.726.411-2.686 1.633-2.829 3.6-.137 1.897.588 3.578 1.833 4.248.727.391 1.983.536 2.994.346 2.008-.378 2.925-1.659 2.925-4.086 0-2.408-.867-3.669-2.809-4.085-1.11-.238-1.208-.239-2.114-.023m19.139.063c-.803.284-1.607 1.357-1.607 2.145 0 .871.807 1.845 2.1 2.535 1.294.69 1.718 1.262 1.304 1.76-.325.392-1.789.4-2.71.015l-.694-.29v.881c0 .857.02.885.75 1.033 1.034.21 2.566.151 3.212-.124 1.263-.538 1.731-2.248.916-3.351-.227-.308-.989-.875-1.693-1.261-1.309-.717-1.617-1.177-1.159-1.729.258-.312 1.631-.303 2.388.015.217.09.388-.029.55-.386.13-.284.236-.605.236-.712 0-.516-2.564-.894-3.593-.531m47.258-.048c-1.997.4-3.026 1.546-3.21 3.575-.309 3.403 1.601 5.141 5.088 4.632.683-.1 1.336-.239 1.45-.31.121-.075.207-.992.207-2.216V35.2h-3.4v.7c0 .683.019.7.8.7h.8v1.8h-.963c-.792 0-1.057-.099-1.498-.559-1.067-1.114-.907-3.327.315-4.356.553-.465.757-.516 1.736-.435.611.05 1.227.127 1.37.171.146.044.385-.21.543-.578.269-.622.26-.667-.16-.823-.769-.287-2.212-.387-3.078-.213M54.4 35.69v4.11h1.59l.055-3.025.055-3.025 1.71 2.975 1.71 2.975 1.14.06 1.14.06V31.6h-1.589l-.056 2.904-.055 2.904-1.635-2.854L56.83 31.7l-1.215-.06-1.215-.059v4.109m17.4-1.07c0 3.433.182 4.089 1.336 4.802.899.556 2.84.603 3.905.095 1.278-.611 1.559-1.507 1.559-4.98V31.6h-1.8v2.813c0 3.517-.187 3.978-1.612 3.984-1.401.006-1.48-.182-1.552-3.68l-.064-3.117H71.8v3.02m9.6 1.08v4.1h5.225l-.062-.65-.063-.65-1.65-.058-1.65-.058V31.6h-1.8v4.1m6.2-3.41v.69l1.15.06 1.15.06.055 3.35.055 3.35h1.59V33h2.2v-1.4h-6.2v.69m8.2 3.41v4.1h1.8v-8.2h-1.8v4.1m4.2 0v4.1h1.6l.012-2.95c.008-1.985.075-2.852.206-2.65.107.165.883 1.493 1.724 2.95l1.53 2.65h2.328v-8.2h-1.59l-.055 3.002-.055 3.002-1.7-2.995-1.7-2.996-1.15-.006L100 31.6v4.1m-50.97-2.484c1.266.678 1.266 4.29 0 4.968-.222.119-.762.216-1.199.216-.636 0-.895-.119-1.294-.593-.926-1.099-.923-3.118.006-4.221.393-.467.654-.586 1.288-.586.437 0 .977.097 1.199.216" fill="#000" fill-rule="evenodd"/></svg>