<svg width="120" height="64" fill="none" xmlns="http://www.w3.org/2000/svg"><path d="M71.2 21.5v6.1h3.2V15.4h-3.2v6.1m-21.65-5.389c-.082.085-.15 2.706-.15 5.822V27.6h2.692c3.178 0 4.383-.337 5.544-1.549 1.267-1.322 1.456-1.887 1.46-4.351.003-1.875-.06-2.318-.427-3-1.054-1.959-2.378-2.529-6.167-2.654-1.541-.05-2.869-.021-2.952.065m31.583.022c-.073.074-.133 2.688-.133 5.809v5.676l1.324-.059 1.325-.059-.02-3.65c-.01-2.007.051-3.65.137-3.65.085 0 .254.428.375.95s.402 1.58.624 2.35c.223.77.57 1.985.773 2.7l.368 1.3h3.148l.771-2.8c.424-1.54.884-3.25 1.023-3.8.236-.936.258-.758.352 2.8l.1 3.8 1.353.059 1.353.059-.053-5.759L93.9 16.1l-1.915-.057c-2.28-.067-1.918-.55-3.298 4.405-.543 1.951-1.051 3.549-1.129 3.55-.079.001-.24-.38-.36-.848a20.12 20.12 0 0 0-.392-1.35 90.68 90.68 0 0 1-.804-2.7c-.974-3.409-.689-3.1-2.864-3.1-1.029 0-1.931.06-2.005.133M55.03 19.121c.618.551.97 1.523.97 2.679 0 1.962-.789 3-2.398 3.155l-1.002.096v-6.502l1.002.096c.586.057 1.179.254 1.428.476m8.07-.207c-1.02.529-1.697 1.327-2.005 2.364-.759 2.557.05 5.054 1.961 6.055.862.452 3.56.577 4.744.222l.9-.271.06-1.142c.033-.628.033-1.141 0-1.14-.033.001-.502.136-1.042.3-1.656.503-2.83.338-3.462-.485-.574-.748-.358-.817 2.57-.817h2.826l-.14-1.45c-.273-2.821-1.51-3.951-4.325-3.949-.954.001-1.702.113-2.087.313m34.8-.008c-.44.158-.822.289-.85.291-.144.009-.007.52.35 1.304l.401.878.693-.289c1.06-.443 2.221-.379 2.586.143.167.238.265.494.218.57-.047.076-.764.19-1.594.252-2.706.205-3.839 1.213-3.622 3.22.058.537.25 1.197.427 1.467.784 1.196 3.228 1.384 4.58.353l.701-.535.241.529c.224.492.319.525 1.355.47l1.114-.059v-3.4c0-3.214-.025-3.435-.454-4.036-.827-1.161-1.575-1.465-3.57-1.455-1.02.005-2.116.131-2.576.297m8.7 4.194v4.5h3.2V25c0-2.308.044-2.644.389-2.989.417-.417 1.62-.727 2.103-.542.395.152.436.049.599-1.519l.141-1.35h-1.016c-.885 0-1.117.093-1.813.721l-.797.72-.203-.533c-.112-.294-.203-.618-.203-.721 0-.103-.54-.187-1.2-.187h-1.2v4.5m-40.294-1.831c.462.66.372.731-.92.731-1.141 0-1.21-.027-1.15-.445.074-.517.825-.954 1.387-.807.214.056.521.291.683.521m35.053 2.849c.125.865-1.156 1.721-1.834 1.225-.557-.407-.238-1.297.547-1.527.879-.258 1.218-.178 1.287.302M51.1 31.166c-.44.211-1.07.671-1.4 1.022-.545.579-.6.763-.6 1.991 0 1.826.5 2.479 2.795 3.65 1.679.857 2.03 1.213 1.796 1.822-.239.623-2.804.515-4.137-.175L49 39.19v2.978l1.45.331c2.253.515 4.626.044 5.675-1.125 1.074-1.197 1.096-3.28.048-4.474-.33-.376-1.112-.929-1.737-1.228-2.253-1.079-2.783-1.758-1.743-2.233.387-.176.802-.146 1.924.139l1.431.363.476-1.076c.262-.592.476-1.118.476-1.168 0-.313-1.751-.752-3.3-.827-1.487-.073-1.939-.021-2.6.296m8.799 1.164c-.165.347-.299.722-.299.833 0 .112-.36.489-.8.837-.598.473-.8.778-.8 1.203 0 .438.104.584.45.633.433.062.454.158.552 2.582.095 2.365.135 2.561.655 3.243.732.959 1.82 1.278 3.315.971 1.459-.299 1.66-.504 1.588-1.614l-.06-.918-.748.058c-1.427.112-1.574-.114-1.509-2.319L62.3 35.9l1.05-.06 1.05-.061v-2.158l-1.05-.061-1.05-.06-.061-.85c-.034-.468-.124-.856-.2-.864-1.571-.154-1.842-.085-2.14.544m24.778.403c-.29.655-.683 1.166-1.075 1.398-.629.371-.995 1.163-.677 1.464.096.091.355.198.575.238.369.066.408.271.505 2.669.122 3.017.321 3.484 1.711 4.015.911.347 2.061.31 3.148-.103.493-.188.536-.294.536-1.318v-1.114l-.683.128c-.375.07-.873.067-1.106-.007-.401-.127-.422-.246-.368-2.169L87.3 35.9l1.05-.06 1.05-.061V33.6h-2.2v-.9c0-.495-.067-.906-.15-.914-1.838-.166-1.89-.145-2.373.947m-14.177.948c-.33.145-.771.457-.981.692-.51.571-.663.539-.819-.173-.13-.591-.151-.6-1.42-.6h-1.288l.054 4.45.054 4.45h3l.102-2.5c.133-3.285.318-3.6 2.111-3.6.974 0 .982-.014 1.149-1.839.064-.695.011-.967-.204-1.05-.465-.178-1.112-.116-1.758.17m4.854-.001c-.631.135-1.208.307-1.282.382-.14.14.198 1.44.492 1.893.133.204.416.191 1.43-.069 1.409-.361 2.206-.188 2.206.481 0 .32-.213.395-1.449.51-2.544.237-3.751 1.173-3.751 2.91 0 1.373.457 2.172 1.507 2.637.696.308 1.123.373 1.756.268.96-.16 1.749-.524 2.13-.984.236-.284.306-.251.64.297.344.568.45.612 1.321.556l.946-.061.055-3.374c.054-3.289.042-3.395-.447-4.23-.397-.677-.698-.923-1.44-1.176-1.095-.373-2.502-.387-4.114-.04m18.301-.098c-2.153.552-3.287 2.772-2.845 5.567.303 1.92 1.162 2.84 3.125 3.352 1.453.378 2.284.363 3.665-.069l1.1-.345.06-1.132.059-1.133-.659.209c-1.724.546-2.255.604-3.054.336-.48-.161-.894-.465-1.044-.767l-.25-.5 2.744-.1 2.744-.1-.026-1.43c-.032-1.744-.557-2.818-1.686-3.453-.853-.479-2.885-.704-3.933-.435m9.192.138a2.998 2.998 0 0 0-1.123 4.905c.448.468.487.584.226.683-.5.193-.802 1.13-.564 1.755.112.295.296.537.409.537.418 0 .186.359-.385.596-1.22.505-1.553 1.836-.756 3.019.559.829 1.51 1.149 3.481 1.17 2.202.023 3.399-.328 4.408-1.295.824-.79.857-.868.857-2.027 0-.996-.083-1.295-.483-1.726-.552-.595-.843-.676-2.917-.808-1.682-.108-2.2-.255-2.2-.624 0-.168.457-.284 1.384-.35 2.376-.17 3.544-1.277 3.342-3.166-.093-.861-.065-.924.488-1.133.498-.188.586-.329.586-.939V33.6h-1.47c-.808 0-2.136-.044-2.95-.097-1.057-.07-1.724-.008-2.333.217m7.153.045c0 .091.752 2.048 1.671 4.35 1.451 3.633 1.645 4.26 1.473 4.757-.202.584-1.137 1.128-1.938 1.128-.364 0-.406.127-.406 1.223v1.222l1.35-.081c.742-.045 1.616-.213 1.941-.373.967-.476 1.795-1.798 2.706-4.316.472-1.306.981-2.646 1.131-2.978.15-.332.357-.872.459-1.2.102-.328.461-1.317.799-2.197.337-.88.613-1.622.613-1.65.001-.027-.712-.05-1.583-.05h-1.585l-.6 1.95c-.33 1.073-.7 2.333-.823 2.8-.24.911-.608 1.147-.608.389 0-.254-.173-.996-.383-1.65-.211-.654-.539-1.706-.728-2.339l-.344-1.15h-1.572c-.865 0-1.573.074-1.573.165m-4.787 1.642c.777.416.353 2.393-.513 2.393-.479 0-.9-.609-.9-1.3 0-.647.415-1.3.827-1.3.11 0 .373.093.586.207M96 36c.737.737.527 1-.8 1-1.055 0-1.2-.047-1.2-.389 0-.437.706-1.011 1.245-1.011.195 0 .535.18.755.4m-17.714 2.777c.221.359-.325 1.425-.79 1.542-1.153.289-1.707-.508-.908-1.307.416-.416 1.494-.565 1.698-.235m28.307 4.53c.438.438-.138.917-1.33 1.103-1.366.214-2.042.044-2.191-.55-.207-.827.389-1.09 2.128-.94.605.052 1.232.227 1.393.387" fill="#000" fill-rule="evenodd"/></svg>