<svg width="120" height="64" fill="none" xmlns="http://www.w3.org/2000/svg"><path d="M0 21.998c0 .771.067 1.404.15 1.407.155.004 3.183.465 7.85 1.195 5.535.865 7.532 1.184 8.7 1.388 2.085.364 1.919.592 1.856-2.538L18.5 20.7l-9.25-.052L0 20.596v1.402m47.5 2.882c-1.877.593-2.981 1.572-3.599 3.19-.464 1.214-.356 4.487.183 5.53a5.364 5.364 0 0 0 2.216 2.268c.681.368 1.127.432 3 .432 2.588 0 4.053-.34 4.211-.977.057-.233.078-1.593.047-3.023l-.058-2.6h-5l-.06 1.05-.061 1.05.861.003c1.182.004 1.4.188 1.324 1.117l-.064.78-.967.062c-1.753.111-2.731-1.005-2.732-3.12-.001-1.585.504-2.657 1.469-3.114.842-.4 1.518-.412 2.904-.053l1.061.276.354-.826c.749-1.749.786-1.653-.771-2.007-1.649-.375-3.209-.389-4.318-.038m-23.159.045c-.077.078-.141 2.647-.141 5.708V36.2h3.2v-4.6H31v4.6h3V24.8h-2.986l-.057 2.05-.057 2.05-1.743.058-1.743.057-.057-2.057L27.3 24.9l-1.409-.058c-.775-.032-1.472.006-1.55.083M37.8 30.5v5.717l1.55-.059 1.55-.058V24.9l-1.55-.058-1.55-.059V30.5m19.2 0v5.717l1.55-.059 1.55-.058.057-2.25.056-2.25h3.374l.056 2.25.057 2.25 1.553.058 1.553.059-.053-5.659L66.7 24.9h-3l-.057 2.05-.057 2.05h-3.372l-.057-2.05-.057-2.05-1.55-.058-1.55-.059V30.5m13.6-.005V36.2h6.8v-2.385l-1.85-.057-1.85-.058-.06-1.05-.061-1.05H77v-2.384l-1.65-.058-1.65-.058-.061-.842-.061-.843 1.861-.057L77.3 27.3v-2.4l-3.35-.055-3.35-.055v5.705m9.733-5.562c-.073.074-.133 2.639-.133 5.7V36.2h3v-2c0-1.977.006-2 .479-2 .398 0 .671.339 1.611 2l1.133 2h1.688c.929 0 1.689-.067 1.689-.15-.001-.082-.682-1.184-1.515-2.447l-1.514-2.297.493-.403c1.456-1.189 1.78-3.221.739-4.637-.811-1.102-2.11-1.466-5.233-1.466-1.267 0-2.363.06-2.437.133M96.8 30.495V36.2h3V32h3.4v-2.6h-3.4V27.415l1.85-.057 1.85-.058v-2.4l-3.35-.055-3.35-.055v5.705m9.541-5.57c-.077.078-.141 2.647-.141 5.708V36.2h3.206l-.053-5.65-.053-5.65-1.409-.058c-.775-.032-1.472.006-1.55.083M111.6 26.1v1.3h2.8v8.8h3v-8.8h2.6v-2.6h-8.4v1.3m-26.566 1.431c.215.194.366.606.366.995 0 .538-.116.724-.614.981-.337.174-.809.289-1.05.255-.37-.053-.445-.21-.498-1.037-.034-.536-.014-1.098.044-1.25.147-.383 1.308-.346 1.752.056M0 30v2.204l9.25-.052 9.25-.052v-4.2l-9.25-.052L0 27.796V30m16.7 4.001C15.2 34.283.523 36.584.15 36.595c-.083.003-.15.636-.15 1.407v1.402l9.25-.052 9.25-.052.056-2.75.055-2.75-.555.025c-.306.014-.916.093-1.356.176" fill="#000" fill-rule="evenodd"/></svg>