<svg width="120" height="64" fill="none" xmlns="http://www.w3.org/2000/svg"><path d="M0 16.517v16.517l1.347-1.067c3.609-2.859 7.595-6.032 7.954-6.332.447-.374 3.601-2.882 5.899-4.692.825-.65 1.68-1.331 1.901-1.512.22-.182.805-.644 1.3-1.026.494-.382.944-.746.999-.809.055-.064.383-.313.729-.554l.629-.439 1.071.868c.589.477 2.421 1.935 4.071 3.24 1.65 1.304 5.61 4.45 8.8 6.99 3.19 2.541 6.092 4.834 6.45 5.097.357.262.65.55.65.64 0 .089-9.405.162-20.9.162H0V64h120V0H0v16.517m41.571-7.812c3.713.876 5.57 4.795 3.883 8.195-1.33 2.68-4.888 3.879-7.587 2.558-4.842-2.372-4.149-9.481 1.047-10.738a44.661 44.661 0 0 1 1.286-.3c.055-.008.672.121 1.371.285M36.4 43.1v8.5H5.2V39.064l1.75-.225c2.201-.284 6.969-.968 8.55-1.228.66-.108 1.605-.248 2.1-.31.495-.063 1.44-.197 2.1-.298.66-.101 2.19-.324 3.4-.496s2.785-.402 3.5-.512a638.4 638.4 0 0 1 4.2-.617c1.595-.229 3.35-.487 3.9-.573.55-.085 1.158-.166 1.35-.18.328-.023.35.504.35 8.475" fill="url(#pattern0)" fill-rule="evenodd"/></svg>