<svg aria-hidden="true" xmlns="http://www.w3.org/2000/svg" xmlns:xlink="http://www.w3.org/1999/xlink"><symbol viewBox="0 0 24 25" id="Alert" xmlns="http://www.w3.org/2000/svg">
<g id="aaAlert">
<g id="aaVector">
<path fill-rule="evenodd" clip-rule="evenodd" d="M12.0001 15.125C11.4478 15.125 11.0001 14.6773 11.0001 14.125V8.5C11.0001 7.94772 11.4478 7.5 12.0001 7.5C12.5524 7.5 13.0001 7.94772 13.0001 8.5V14.125C13.0001 14.6773 12.5524 15.125 12.0001 15.125Z"/>
<path d="M13.0001 17.5C13.0001 18.0523 12.5524 18.5 12.0001 18.5C11.4478 18.5 11.0001 18.0523 11.0001 17.5C11.0001 16.9477 11.4478 16.5 12.0001 16.5C12.5524 16.5 13.0001 16.9477 13.0001 17.5Z"/>
<path fill-rule="evenodd" clip-rule="evenodd" d="M23.0839 17.9766C24.2628 19.9764 22.821 22.5 20.4995 22.5H3.50065C1.17917 22.5 -0.262621 19.9764 0.916253 17.9766L9.93237 2.68136C10.3639 1.94931 11.1503 1.5 12.0001 1.5C12.8499 1.5 13.6363 1.94932 14.0678 2.68136L23.0839 17.9766ZM20.4995 20.5C21.2733 20.5 21.7539 19.6588 21.361 18.9922L12.3449 3.69699C12.2729 3.57492 12.1418 3.5 12.0001 3.5C11.8584 3.5 11.7273 3.57492 11.6553 3.69699L2.63919 18.9922C2.24623 19.6588 2.72683 20.5 3.50065 20.5H20.4995Z"/>
</g>
</g>
</symbol><symbol viewBox="0 0 24 24" id="Attach" xmlns="http://www.w3.org/2000/svg">
<g id="abAttach" clip-path="url(#abclip0_2191_2689)">
<g id="abAttach_2">
<path id="abVector (Stroke)" fill-rule="evenodd" clip-rule="evenodd" d="M18.4303 3.93473C16.6241 2.12856 13.6957 2.12856 11.8895 3.93473L5.54782 10.2765C5.1573 10.667 4.52413 10.667 4.13361 10.2765C3.74308 9.88593 3.74308 9.25276 4.13361 8.86224L10.4753 2.52052C13.0626 -0.0667034 17.2573 -0.0667034 19.8445 2.52052C22.4317 5.10774 22.4317 9.30246 19.8445 11.8897L11.3137 20.4205C9.45873 22.2755 6.45119 22.2755 4.5962 20.4205C2.74121 18.5655 2.74121 15.5579 4.5962 13.7029L4.60003 13.6991L4.60004 13.6991L11.0404 7.3282C11.0411 7.32749 11.0418 7.32678 11.0425 7.32608C12.1407 6.2301 13.9252 6.14718 15.0715 7.29351C16.1943 8.41627 16.1943 10.2366 15.0715 11.3594L10.5637 15.8672C10.1732 16.2577 9.54003 16.2577 9.14951 15.8672C8.75898 15.4767 8.75898 14.8435 9.14951 14.453L13.6573 9.94516C13.999 9.60345 13.999 9.04943 13.6573 8.70772C13.3399 8.39033 12.821 8.37594 12.4546 8.74241L12.4507 8.74624L12.4507 8.74623L6.01042 15.1172C6.00981 15.1178 6.00921 15.1184 6.00861 15.119C4.93647 16.1931 4.93708 17.9329 6.01042 19.0062C7.08436 20.0802 8.82556 20.0802 9.8995 19.0062L18.4303 10.4755C20.2365 8.6693 20.2365 5.74091 18.4303 3.93473Z"/>
</g>
</g>
<defs>
<clipPath id="abclip0_2191_2689">
<rect width="24" height="24"/>
</clipPath>
</defs>
</symbol><symbol viewBox="0 0 24 24" id="Back" xmlns="http://www.w3.org/2000/svg">
<g id="acBack">
<path id="acLine (Stroke)" fill-rule="evenodd" clip-rule="evenodd" d="M8.95711 3.29289C8.56658 2.90237 7.93342 2.90237 7.54289 3.29289L2.29289 8.54289C1.90237 8.93342 1.90237 9.56658 2.29289 9.95711L7.54289 15.2071C7.93342 15.5976 8.56658 15.5976 8.95711 15.2071C9.34763 14.8166 9.34763 14.1834 8.95711 13.7929L5.41422 10.25H15.75C18.0972 10.25 20 12.1528 20 14.5C20 16.8472 18.0972 18.75 15.75 18.75H12.75C12.1977 18.75 11.75 19.1977 11.75 19.75C11.75 20.3023 12.1977 20.75 12.75 20.75H15.75C19.2018 20.75 22 17.9518 22 14.5C22 11.0482 19.2018 8.25 15.75 8.25H5.41422L8.95711 4.70711C9.34763 4.31658 9.34763 3.68342 8.95711 3.29289Z"/>
</g>
</symbol><symbol viewBox="0 0 24 25" id="Bell" xmlns="http://www.w3.org/2000/svg">
<g id="adBell">
<g id="adVector">
<path fill-rule="evenodd" clip-rule="evenodd" d="M9.0517 17.5H14.9444L15.2064 18.0996C15.3943 18.5297 15.498 19.0041 15.498 19.5C15.498 21.433 13.931 23 11.998 23C10.0651 23 8.49805 21.433 8.49805 19.5C8.49805 19.0041 8.60179 18.5297 8.78972 18.0996L9.0517 17.5ZM10.498 19.5C10.498 20.3284 11.1696 21 11.998 21C12.8265 21 13.498 20.3284 13.498 19.5H10.498Z"/>
<path fill-rule="evenodd" clip-rule="evenodd" d="M12.0001 4.5C9.05519 4.5 6.50013 7.36502 6.50013 10.5V13.8333C6.50013 15.1973 5.85796 16.4816 4.7668 17.3C4.74582 17.3157 4.73629 17.3278 4.73211 17.334C4.72775 17.3404 4.72512 17.3462 4.72333 17.3526C4.71935 17.3668 4.71756 17.3925 4.72806 17.424C4.73855 17.4555 4.75541 17.475 4.76711 17.484C4.77238 17.488 4.77801 17.4912 4.78534 17.4936C4.79235 17.496 4.80725 17.5 4.83347 17.5H19.1668C19.193 17.5 19.2079 17.496 19.2149 17.4936C19.2223 17.4912 19.2279 17.488 19.2332 17.484C19.2449 17.475 19.2617 17.4555 19.2722 17.424C19.2827 17.3925 19.2809 17.3668 19.2769 17.3526C19.2751 17.3462 19.2725 17.3404 19.2682 17.334C19.264 17.3278 19.2544 17.3157 19.2335 17.3C18.1423 16.4816 17.5001 15.1973 17.5001 13.8333V10.5C17.5001 7.36502 14.9451 4.5 12.0001 4.5ZM4.50013 10.5C4.50013 6.45527 7.76538 2.5 12.0001 2.5C16.2349 2.5 19.5001 6.45527 19.5001 10.5V13.8333C19.5001 14.5678 19.8459 15.2593 20.4335 15.7C22.0565 16.9173 21.1956 19.5 19.1668 19.5H4.83347C2.80466 19.5 1.94376 16.9173 3.5668 15.7C4.15435 15.2593 4.50013 14.5678 4.50013 13.8333V10.5Z"/>
</g>
</g>
</symbol><symbol viewBox="0 0 24 24" id="Block" xmlns="http://www.w3.org/2000/svg">
<g id="aeBlock">
<g id="aeBlock_2">
<g id="aeVector">
<path fill-rule="evenodd" clip-rule="evenodd" d="M4.54289 19.5037C4.15237 19.1132 4.15237 18.48 4.54289 18.0895L18.0429 4.58952C18.4334 4.199 19.0666 4.199 19.4571 4.58952C19.8476 4.98005 19.8476 5.61321 19.4571 6.00374L5.95711 19.5037C5.56658 19.8943 4.93342 19.8943 4.54289 19.5037Z"/>
<path fill-rule="evenodd" clip-rule="evenodd" d="M12 3C7.02944 3 3 7.02944 3 12C3 16.9706 7.02944 21 12 21C16.9706 21 21 16.9706 21 12C21 7.02944 16.9706 3 12 3ZM1 12C1 5.92487 5.92487 1 12 1C18.0751 1 23 5.92487 23 12C23 18.0751 18.0751 23 12 23C5.92487 23 1 18.0751 1 12Z"/>
</g>
</g>
</g>
</symbol><symbol viewBox="0 0 24 24" id="Calendar" xmlns="http://www.w3.org/2000/svg">
<g id="agCalendar">
<path id="agVector (Stroke)" fill-rule="evenodd" clip-rule="evenodd" d="M7.5 1.25C8.05228 1.25 8.5 1.69772 8.5 2.25V2.75001L15.5 2.75003V2.25C15.5 1.69772 15.9477 1.25 16.5 1.25C17.0523 1.25 17.5 1.69771 17.5 2.25V2.75003L18.75 2.75003C20.9591 2.75004 22.75 4.5409 22.75 6.75003V18.75C22.75 20.9591 20.9591 22.75 18.75 22.75L5.25 22.75C3.04086 22.75 1.25 20.9591 1.25 18.75L1.25 9.00019L1.25 6.75001C1.25 4.54086 3.04087 2.75 5.25001 2.75001L6.5 2.75001V2.25C6.5 1.69772 6.94771 1.25 7.5 1.25ZM6.5 4.75001L5.25 4.75001C4.14543 4.75 3.25 5.64543 3.25 6.75001V8H20.75V6.75003C20.75 5.64546 19.8546 4.75003 18.75 4.75003L17.5 4.75003V5.25C17.5 5.80228 17.0523 6.25 16.5 6.25C15.9477 6.25 15.5 5.80229 15.5 5.25V4.75003L8.5 4.75001V5.25C8.5 5.80228 8.05228 6.25 7.5 6.25C6.94771 6.25 6.5 5.80228 6.5 5.25V4.75001ZM20.75 10H3.25L3.25 18.75C3.25 19.8546 4.14543 20.75 5.25 20.75L18.75 20.75C19.8546 20.75 20.75 19.8546 20.75 18.75V10Z"/>
</g>
</symbol><symbol viewBox="0 0 24 24" id="Cart" xmlns="http://www.w3.org/2000/svg">
<g id="ahCart">
<g id="ahcart">
<g id="ahVector">
<path fill-rule="evenodd" clip-rule="evenodd" d="M3.1416 3.00802C3.04394 3.00066 2.90841 3 2.65424 3H1C0.447715 3 0 2.55229 0 2C0 1.44772 0.447715 1 1 1H2.65424C2.66367 1 2.6731 1 2.68252 1C2.89719 0.999976 3.10972 0.99995 3.29187 1.01367C3.49456 1.02895 3.73005 1.06482 3.97366 1.17349C4.31651 1.32642 4.60939 1.57276 4.81881 1.88434C4.96761 2.10573 5.0433 2.33159 5.09308 2.52866C5.13781 2.70576 5.1742 2.91516 5.21095 3.12665C5.21257 3.13594 5.21418 3.14523 5.2158 3.15452L5.45407 4.52459L18.4681 4.90982C18.978 4.9249 19.4188 4.93793 19.7817 4.9779C20.1654 5.02015 20.5457 5.0996 20.9106 5.29398C21.4634 5.58852 21.9102 6.04874 22.1883 6.61008C22.3718 6.98053 22.4399 7.36306 22.4708 7.74778C22.5 8.11176 22.5 8.55266 22.5 9.06286V9.13661C22.5 9.61608 22.5 10.032 22.4732 10.3769C22.4447 10.7426 22.3819 11.1059 22.2143 11.4619C21.9593 12.0037 21.5479 12.4568 21.0332 12.7628C20.695 12.9639 20.3395 13.0614 19.9782 13.125C19.6375 13.185 19.2235 13.225 18.7463 13.2712L9.01239 14.2132C8.5232 14.2605 8.09935 14.3015 7.74572 14.3078C7.37105 14.3144 6.99541 14.2853 6.61828 14.1467C6.05271 13.939 5.5628 13.5657 5.21236 13.0756C4.97869 12.7487 4.85092 12.3943 4.75782 12.0313C4.66995 11.6887 4.59701 11.2692 4.51282 10.785L3.24537 3.4972C3.20182 3.24679 3.17795 3.11338 3.15397 3.01842C3.15312 3.01505 3.15229 3.01185 3.1515 3.00881C3.14837 3.00855 3.14507 3.00828 3.1416 3.00802ZM5.80385 6.53582L6.47694 10.4061C6.56924 10.9368 6.62925 11.2776 6.69512 11.5344C6.75794 11.7794 6.80763 11.8681 6.83929 11.9123C6.9561 12.0757 7.11941 12.2001 7.30793 12.2694C7.35903 12.2882 7.45772 12.3125 7.71054 12.3081C7.97562 12.3034 8.32011 12.2708 8.85632 12.2189L18.5177 11.2839C19.0411 11.2333 19.3768 11.2001 19.6316 11.1553C19.8743 11.1126 19.9649 11.0712 20.0111 11.0438C20.1826 10.9417 20.3198 10.7907 20.4048 10.6101C20.4277 10.5615 20.4601 10.4673 20.4792 10.2216C20.4993 9.96369 20.5 9.62638 20.5 9.10051C20.5 8.54201 20.4993 8.18214 20.4772 7.90781C20.4562 7.64531 20.4204 7.5469 20.3961 7.49781C20.3034 7.3107 20.1545 7.15729 19.9702 7.05911C19.9218 7.03336 19.8245 6.99471 19.5628 6.96588C19.2892 6.93575 18.9295 6.92435 18.3713 6.90783L5.80385 6.53582Z"/>
<path fill-rule="evenodd" clip-rule="evenodd" d="M8.5 17.5C7.94772 17.5 7.5 17.9477 7.5 18.5C7.5 19.0523 7.94772 19.5 8.5 19.5C9.05228 19.5 9.5 19.0523 9.5 18.5C9.5 17.9477 9.05228 17.5 8.5 17.5ZM5.5 18.5C5.5 16.8431 6.84315 15.5 8.5 15.5C10.1569 15.5 11.5 16.8431 11.5 18.5C11.5 20.1569 10.1569 21.5 8.5 21.5C6.84315 21.5 5.5 20.1569 5.5 18.5Z"/>
<path fill-rule="evenodd" clip-rule="evenodd" d="M18 17.5C17.4477 17.5 17 17.9477 17 18.5C17 19.0523 17.4477 19.5 18 19.5C18.5523 19.5 19 19.0523 19 18.5C19 17.9477 18.5523 17.5 18 17.5ZM15 18.5C15 16.8431 16.3431 15.5 18 15.5C19.6569 15.5 21 16.8431 21 18.5C21 20.1569 19.6569 21.5 18 21.5C16.3431 21.5 15 20.1569 15 18.5Z"/>
</g>
</g>
</g>
</symbol><symbol viewBox="0 0 24 24" id="Chat" xmlns="http://www.w3.org/2000/svg">
<g id="aiChat">
<g id="aiVector">
<path fill-rule="evenodd" clip-rule="evenodd" d="M21.923 10.5674C21.7806 11.5541 21.443 12.4919 20.9428 13.3544C20.9803 13.5679 20.9995 13.7837 20.9995 14.0005C20.9995 14.7533 20.7814 15.4738 20.3774 16.1284C20.1757 16.4551 20.1238 16.838 20.1038 17.0909C20.0809 17.3808 20.0886 17.6981 20.1093 18.0028C20.1325 18.3447 20.1746 18.7036 20.2227 19.0422C19.8324 18.9284 19.4093 18.8141 19.0056 18.723C18.6698 18.6472 18.3262 18.5826 18.0149 18.5505C17.7434 18.5224 17.3511 18.5007 17.0003 18.6142C16.2332 18.8621 15.3891 19.0005 14.4995 19.0005C13.4416 19.0005 12.47 18.8127 11.6184 18.4865C11.4135 18.4957 11.2072 18.5005 10.9995 18.5005C9.7949 18.5005 8.63552 18.342 7.55078 18.0493C9.12774 19.8731 11.7274 21.0005 14.4995 21.0005C15.5825 21.0005 16.6219 20.8342 17.5797 20.5287C17.5814 20.5287 17.5845 20.5287 17.589 20.5286C17.6136 20.5281 17.6819 20.5267 17.8094 20.5399C18.01 20.5606 18.268 20.6068 18.5655 20.674C19.1578 20.8076 19.8235 21.0048 20.3423 21.1694C21.4424 21.5187 22.5084 20.5586 22.3118 19.4422C22.2271 18.9617 22.1392 18.3753 22.1047 17.8673C22.0874 17.6118 22.0855 17.4022 22.0976 17.2483C22.1026 17.1845 22.1091 17.1446 22.1132 17.1233C22.6758 16.1913 22.9995 15.1302 22.9995 14.0005C22.9995 12.7269 22.604 11.5639 21.923 10.5674Z"/>
<path fill-rule="evenodd" clip-rule="evenodd" d="M5.59664 5.69816C4.24868 6.72895 3.49959 8.08209 3.49959 9.5C3.49959 10.207 3.68366 10.888 4.02898 11.5212C4.1605 11.7624 4.19782 12.0112 4.21116 12.1796C4.22571 12.3633 4.21845 12.552 4.20248 12.7285C4.17051 13.0819 4.09423 13.4823 4.00274 13.8766C3.89572 14.3379 3.75859 14.8299 3.61943 15.2918C4.14769 15.0998 4.72505 14.903 5.2724 14.7434C5.71477 14.6143 6.16151 14.5023 6.55911 14.4394C6.90162 14.3853 7.39864 14.3321 7.82655 14.4801C8.78688 14.8123 9.86117 15 10.9996 15C13.1468 15 15.0537 14.3333 16.4026 13.3018C17.7505 12.271 18.4996 10.9179 18.4996 9.5C18.4996 8.08209 17.7505 6.72895 16.4026 5.69816C15.0537 4.66667 13.1468 4 10.9996 4C8.85242 4 6.94552 4.66667 5.59664 5.69816ZM4.38174 4.10945C6.10925 2.78841 8.45234 2 10.9996 2C13.5468 2 15.8899 2.78841 17.6175 4.10945C19.3459 5.43119 20.4996 7.32806 20.4996 9.5C20.4996 11.6719 19.3459 13.5688 17.6175 14.8906C15.8899 16.2116 13.5468 17 10.9996 17C9.65654 17 8.37366 16.7811 7.20886 16.3826C7.2077 16.3859 7.11322 16.3767 6.87147 16.4149C6.59282 16.459 6.23713 16.5453 5.83253 16.6633C5.02707 16.8983 4.12252 17.2308 3.43353 17.4989C2.2399 17.9634 1.02395 16.8171 1.42611 15.5959C1.63926 14.9487 1.89065 14.1308 2.05449 13.4246C2.13702 13.0689 2.19058 12.7698 2.21062 12.5483C2.21758 12.4714 2.21938 12.4154 2.21897 12.3775C1.75869 11.4979 1.49959 10.5252 1.49959 9.5C1.49959 7.32806 2.6533 5.43119 4.38174 4.10945Z"/>
</g>
</g>
</symbol><symbol viewBox="0 0 24 24" id="Check-round" xmlns="http://www.w3.org/2000/svg">
<g id="ajCheck-round">
<g id="ajVector">
<path fill-rule="evenodd" clip-rule="evenodd" d="M12 3C7.02944 3 3 7.02944 3 12C3 16.9706 7.02944 21 12 21C16.9706 21 21 16.9706 21 12C21 7.02944 16.9706 3 12 3ZM1 12C1 5.92487 5.92487 1 12 1C18.0751 1 23 5.92487 23 12C23 18.0751 18.0751 23 12 23C5.92487 23 1 18.0751 1 12Z"/>
<path fill-rule="evenodd" clip-rule="evenodd" d="M17.1866 8.27299C17.5881 8.6522 17.6062 9.28511 17.227 9.68662L11.5603 15.6866C11.3714 15.8866 11.1085 16 10.8333 16C10.5582 16 10.2952 15.8866 10.1063 15.6866L6.77299 12.1572C6.39377 11.7557 6.41186 11.1228 6.81338 10.7436C7.21489 10.3644 7.8478 10.3824 8.22701 10.784L10.8333 13.5436L15.773 8.31338C16.1522 7.91186 16.7851 7.89377 17.1866 8.27299Z"/>
</g>
</g>
</symbol><symbol viewBox="0 0 24 24" id="Clock" xmlns="http://www.w3.org/2000/svg">
<g id="alClock">
<g id="alUnion">
<path d="M13 6.5C13 5.94772 12.5523 5.5 12 5.5C11.4477 5.5 11 5.94772 11 6.5V12C11 12.2652 11.1054 12.5196 11.2929 12.7071L14.2929 15.7071C14.6834 16.0976 15.3166 16.0976 15.7071 15.7071C16.0976 15.3166 16.0976 14.6834 15.7071 14.2929L13 11.5858V6.5Z"/>
<path fill-rule="evenodd" clip-rule="evenodd" d="M12 1C5.92487 1 1 5.92487 1 12C1 18.0751 5.92487 23 12 23C18.0751 23 23 18.0751 23 12C23 5.92487 18.0751 1 12 1ZM3 12C3 7.02944 7.02944 3 12 3C16.9706 3 21 7.02944 21 12C21 16.9706 16.9706 21 12 21C7.02944 21 3 16.9706 3 12Z"/>
</g>
</g>
</symbol><symbol viewBox="0 0 24 24" id="Comment" xmlns="http://www.w3.org/2000/svg">
<g id="amComment">
<path id="amVector (Stroke)" fill-rule="evenodd" clip-rule="evenodd" d="M20.75 14.75L20.75 6.25002C20.75 4.59317 19.4069 3.25003 17.75 3.25002L6.25001 3.25C4.59315 3.25 3.25 4.59314 3.25 6.25L3.25 20.5568L7.17953 17.75L17.75 17.75C19.4069 17.75 20.75 16.4068 20.75 14.75ZM22.75 6.25002L22.75 14.75C22.75 17.5114 20.5114 19.75 17.75 19.75L7.82046 19.75L4.41247 22.1843C3.08873 23.1298 1.25 22.1835 1.25 20.5568L1.25 6.25C1.25 3.48857 3.48858 1.24999 6.25001 1.25L17.75 1.25002C20.5114 1.25003 22.75 3.4886 22.75 6.25002Z"/>
</g>
</symbol><symbol viewBox="0 0 24 24" id="Cross" xmlns="http://www.w3.org/2000/svg">
<g id="anCross">
<path id="ancross" fill-rule="evenodd" clip-rule="evenodd" d="M4.29289 4.29289C4.68342 3.90237 5.31658 3.90237 5.70711 4.29289L12 10.5858L18.2929 4.29289C18.6834 3.90237 19.3166 3.90237 19.7071 4.29289C20.0976 4.68342 20.0976 5.31658 19.7071 5.70711L13.4142 12L19.7071 18.2929C20.0976 18.6834 20.0976 19.3166 19.7071 19.7071C19.3166 20.0976 18.6834 20.0976 18.2929 19.7071L12 13.4142L5.70711 19.7071C5.31658 20.0976 4.68342 20.0976 4.29289 19.7071C3.90237 19.3166 3.90237 18.6834 4.29289 18.2929L10.5858 12L4.29289 5.70711C3.90237 5.31658 3.90237 4.68342 4.29289 4.29289Z"/>
</g>
</symbol><symbol viewBox="0 0 24 24" id="Envelope-opened" xmlns="http://www.w3.org/2000/svg">
<g id="apEnvelope-opened">
<g id="apVector">
<path fill-rule="evenodd" clip-rule="evenodd" d="M20.75 17.7504V9.00042C20.75 8.44814 21.1977 8.00042 21.75 8.00042C22.3023 8.00042 22.75 8.44814 22.75 9.00042V17.7504C22.75 20.5118 20.5114 22.7504 17.75 22.7504H6.24997C3.48854 22.7504 1.24997 20.5118 1.24997 17.7504L1.24997 9.00044C1.24997 8.44816 1.69768 8.00044 2.24997 8.00044C2.80225 8.00044 3.24997 8.44816 3.24997 9.00044L3.24997 17.7504C3.24997 19.4073 4.59312 20.7504 6.24997 20.7504H17.75C19.4068 20.7504 20.75 19.4073 20.75 17.7504Z"/>
<path fill-rule="evenodd" clip-rule="evenodd" d="M1.44258 9.21544C1.76843 9.66135 2.39408 9.75867 2.83999 9.43282L11.41 3.17015C11.7614 2.91334 12.2386 2.91334 12.59 3.17015L21.16 9.43282C21.6059 9.75867 22.2315 9.66135 22.5574 9.21544C22.8832 8.76953 22.7859 8.14389 22.34 7.81803L13.77 1.55537C12.7157 0.78493 11.2842 0.78493 10.2299 1.55537L1.65995 7.81803C1.21404 8.14389 1.11672 8.76953 1.44258 9.21544Z"/>
<path fill-rule="evenodd" clip-rule="evenodd" d="M1.42778 8.05621C1.74214 7.60213 2.36509 7.48887 2.81918 7.80323L10.2923 12.977C11.3197 13.6882 12.6803 13.6882 13.7076 12.977L21.1808 7.80323C21.6348 7.48887 22.2578 7.60213 22.5722 8.05621C22.8865 8.5103 22.7733 9.13325 22.3192 9.44762L14.846 14.6213C13.1338 15.8067 10.8661 15.8067 9.15392 14.6213L1.68076 9.44762C1.22667 9.13325 1.11341 8.5103 1.42778 8.05621Z"/>
</g>
</g>
</symbol><symbol viewBox="0 0 24 24" id="External_Link" xmlns="http://www.w3.org/2000/svg">
<g id="aqExternal Link">
<g id="aqVector">
<path fill-rule="evenodd" clip-rule="evenodd" d="M18.7652 19.7597V15.808C18.7652 15.27 19.2013 14.8339 19.7393 14.8339C20.2773 14.8339 20.7134 15.27 20.7134 15.808V19.7597C20.7134 22.1015 18.8151 23.9999 16.4735 23.9999L4.24036 23.9999C1.89874 23.9999 0.000488179 22.1015 0.000488281 19.7597L0.000488816 7.52565C0.000488918 5.18386 1.89875 3.28547 4.24037 3.28547L8.19178 3.28549C8.72976 3.28549 9.16587 3.72163 9.16587 4.25965C9.16587 4.79766 8.72975 5.23381 8.19178 5.23381L4.24037 5.23379C2.9747 5.23379 1.94867 6.25989 1.94867 7.52565L1.94867 19.7597C1.94867 21.0255 2.97469 22.0516 4.24036 22.0516H16.4735C17.7392 22.0516 18.7652 21.0255 18.7652 19.7597Z"/>
<path fill-rule="evenodd" clip-rule="evenodd" d="M20.4296 3.57075C20.81 3.95118 20.81 4.56798 20.4296 4.94842L9.60379 15.775C9.22338 16.1554 8.60662 16.1554 8.22622 15.775C7.84581 15.3946 7.84581 14.7778 8.22622 14.3973L19.052 3.57075C19.4324 3.19031 20.0492 3.19031 20.4296 3.57075Z"/>
<path fill-rule="evenodd" clip-rule="evenodd" d="M19.7424 3.29573C20.2797 3.29671 20.7147 3.73257 20.7147 4.26989L20.7147 10.0334C20.7147 10.5714 20.2786 11.0076 19.7406 11.0076C19.2027 11.0076 18.7665 10.5715 18.7665 10.0334L18.7665 5.24227L13.9651 5.23347C13.4271 5.23249 12.9918 4.79555 12.9927 4.25753C12.9937 3.71952 13.4306 3.28417 13.9686 3.28516L19.7424 3.29573Z"/>
</g>
</g>
</symbol><symbol viewBox="0 0 24 24" id="Facebook" xmlns="http://www.w3.org/2000/svg">
<g id="arFacebook">
<path id="arVector" d="M17.5628 1.00458L14.7856 1C11.6654 1 9.64903 3.12509 9.64903 6.41423V8.91055H6.85662C6.61532 8.91055 6.41992 9.1115 6.41992 9.35937V12.9763C6.41992 13.2241 6.61554 13.4249 6.85662 13.4249H9.64903V22.5514C9.64903 22.7993 9.84443 23 10.0857 23H13.729C13.9703 23 14.1657 22.799 14.1657 22.5514V13.4249H17.4307C17.672 13.4249 17.8674 13.2241 17.8674 12.9763L17.8688 9.35937C17.8688 9.24036 17.8226 9.12638 17.7409 9.04215C17.6591 8.95793 17.5477 8.91055 17.4318 8.91055H14.1657V6.79439C14.1657 5.77728 14.4017 5.26094 15.6915 5.26094L17.5624 5.26025C17.8035 5.26025 17.9989 5.0593 17.9989 4.81166V1.45317C17.9989 1.20576 17.8037 1.00504 17.5628 1.00458Z"/>
</g>
</symbol><symbol viewBox="0 0 24 24" id="Files" xmlns="http://www.w3.org/2000/svg">
<g id="asFiles">
<g id="asFiles_2">
<g id="asVector">
<path fill-rule="evenodd" clip-rule="evenodd" d="M8 13.5C8 12.9477 8.44772 12.5 9 12.5H15C15.5523 12.5 16 12.9477 16 13.5C16 14.0523 15.5523 14.5 15 14.5H9C8.44772 14.5 8 14.0523 8 13.5Z"/>
<path fill-rule="evenodd" clip-rule="evenodd" d="M8 17.25C8 16.6977 8.44772 16.25 9 16.25H12C12.5523 16.25 13 16.6977 13 17.25C13 17.8023 12.5523 18.25 12 18.25H9C8.44772 18.25 8 17.8023 8 17.25Z"/>
<path fill-rule="evenodd" clip-rule="evenodd" d="M9.04292 1.54289C9.23045 1.35536 9.48481 1.25 9.75002 1.25H16.5C18.7092 1.25 20.5 3.04086 20.5 5.25L20.5 18.75C20.5 20.9591 18.7092 22.75 16.5 22.75H7.5C5.29086 22.75 3.49999 20.9591 3.5 18.75L3.50002 7.5C3.50003 7.23478 3.60538 6.98043 3.79292 6.79289L9.04292 1.54289ZM9.49999 3.91424V7.25H6.16424L9.49999 3.91424ZM5.50002 9.25L5.5 18.75C5.5 19.8546 6.39543 20.75 7.5 20.75H16.5C17.6046 20.75 18.5 19.8546 18.5 18.75L18.5 5.25C18.5 4.14543 17.6046 3.25 16.5 3.25H11.5V8.25C11.5 8.80228 11.0523 9.25 10.5 9.25H5.50002Z"/>
</g>
</g>
</g>
</symbol><symbol viewBox="0 0 24 24" id="Heart" xmlns="http://www.w3.org/2000/svg">
<g id="atHeart">
<path id="atVector (Stroke)" fill-rule="evenodd" clip-rule="evenodd" d="M11.9994 19.9072C7.4003 17.2878 4.83525 14.6843 3.59488 12.4254C2.32537 10.1134 2.43614 8.16615 3.14059 6.7841C4.58857 3.94337 8.70617 3.03499 11.2149 6.20797L11.9993 7.20002L12.7837 6.20802C15.2929 3.03491 19.4108 3.94344 20.8587 6.7841C21.5632 8.16613 21.6739 10.1134 20.4043 12.4254C19.1638 14.6843 16.5986 17.2878 11.9994 19.9072ZM11.9994 4.10589C8.47019 0.752278 3.26381 2.13832 1.35872 5.87584C0.313178 7.92706 0.298896 10.5782 1.84178 13.388C3.37099 16.173 6.41989 19.1125 11.5156 21.929L11.9993 22.1964L12.4831 21.9291C17.579 19.1126 20.6281 16.173 22.1574 13.3881C23.7004 10.5782 23.6861 7.92708 22.6406 5.87584C20.7355 2.13825 15.5289 0.752328 11.9994 4.10589Z"/>
</g>
</symbol><symbol viewBox="0 0 24 24" id="History" xmlns="http://www.w3.org/2000/svg">
<g id="auHistory">
<g id="auVector">
<path d="M3.85786 0.5C4.41015 0.5 4.85786 0.947715 4.85786 1.5V3.63377C6.77904 1.99236 9.27439 0.999992 12 0.999992C18.0751 0.999992 23 5.92486 23 12C23 18.0751 18.0751 23 12 23C5.92487 23 1 18.0751 1 12C1 11.4477 1.44772 11 2 11C2.55228 11 3 11.4477 3 12C3 16.9706 7.02944 21 12 21C16.9706 21 21 16.9706 21 12C21 7.02943 16.9706 2.99999 12 2.99999C9.85627 2.99999 7.88879 3.74851 6.34257 4.99999H8.36006C8.91235 4.99999 9.36006 5.44771 9.36006 5.99999C9.36006 6.55228 8.91235 6.99999 8.36006 6.99999H3.85786C3.30558 6.99999 2.85786 6.55228 2.85786 5.99999V1.5C2.85786 0.947715 3.30558 0.5 3.85786 0.5Z"/>
<path fill-rule="evenodd" clip-rule="evenodd" d="M12.0001 5.6C12.4971 5.6 12.9001 6.00294 12.9001 6.5V11.6272L15.6365 14.3636C15.9879 14.7151 15.9879 15.2849 15.6365 15.6364C15.285 15.9879 14.7151 15.9879 14.3637 15.6364L11.3637 12.6364C11.1949 12.4676 11.1001 12.2387 11.1001 12V6.5C11.1001 6.00294 11.503 5.6 12.0001 5.6Z"/>
</g>
</g>
</symbol><symbol viewBox="0 0 24 24" id="Home" xmlns="http://www.w3.org/2000/svg">
<g id="avHome">
<path id="avRectangle (Stroke)" fill-rule="evenodd" clip-rule="evenodd" d="M12.784 4.17165C12.2705 4.03263 11.7294 4.03263 11.2159 4.17165C10.6814 4.31638 10.163 4.69556 8.68467 5.84535L6.08467 7.86757C5.13323 8.60758 4.81379 8.86704 4.58799 9.17233C4.371 9.46571 4.20935 9.79622 4.11099 10.1476C4.00864 10.5133 3.99995 10.9247 3.99995 12.1301V18.7499C3.99995 19.5205 4.01081 19.6841 4.04301 19.7902C4.13996 20.1098 4.39007 20.3599 4.70967 20.4569C4.81583 20.4891 4.97942 20.4999 5.74995 20.4999H6.37495C6.50289 20.4999 6.53068 20.4996 6.54902 20.4987C7.06272 20.4735 7.47351 20.0627 7.49875 19.549C7.49965 19.5307 7.49995 19.5029 7.49995 19.3749V16.4999C7.49995 14.0147 9.51467 11.9999 12 11.9999C14.4852 11.9999 16.5 14.0147 16.5 16.4999V19.3749C16.5 19.5029 16.5003 19.5307 16.5012 19.549C16.5264 20.0627 16.9372 20.4735 17.4509 20.4987C17.4692 20.4996 17.497 20.4999 17.625 20.4999H18.25C19.0205 20.4999 19.1841 20.4891 19.2902 20.4569C19.6098 20.3599 19.8599 20.1098 19.9569 19.7902C19.9891 19.6841 20 19.5205 20 18.7499V12.1301C20 10.9247 19.9913 10.5133 19.8889 10.1476C19.7906 9.79622 19.6289 9.46571 19.4119 9.17233C19.1861 8.86704 18.8667 8.60758 17.9152 7.86757L15.3152 5.84535C13.8369 4.69556 13.3185 4.31638 12.784 4.17165ZM10.6932 2.24116C11.549 2.00946 12.4509 2.00946 13.3067 2.24116C14.28 2.50468 15.134 3.16957 16.3729 4.1342C16.4289 4.17774 16.4856 4.22189 16.5431 4.26664L19.1431 6.28887C19.1791 6.31682 19.2145 6.34438 19.2495 6.37158C20.0538 6.99674 20.6103 7.42922 21.0199 7.98303C21.3815 8.472 21.6509 9.02285 21.8149 9.60852C22.0006 10.2719 22.0003 10.9766 22 11.9953C22 12.0396 22 12.0845 22 12.1301V18.7499C22 18.7923 22 18.8342 22.0001 18.8758C22.0007 19.447 22.0013 19.9405 21.8708 20.3708C21.5799 21.3296 20.8296 22.0799 19.8708 22.3708C19.4405 22.5013 18.9471 22.5007 18.3758 22.5C18.3342 22.5 18.2923 22.4999 18.25 22.4999L17.604 22.4999C17.5088 22.5 17.4271 22.5 17.3527 22.4963C15.8116 22.4206 14.5793 21.1883 14.5036 19.6471C14.4999 19.5728 14.4999 19.491 14.4999 19.3959L14.5 16.4999C14.5 15.1192 13.3807 13.9999 12 13.9999C10.6192 13.9999 9.49995 15.1192 9.49995 16.4999L9.49995 19.3959C9.49997 19.4911 9.49999 19.5728 9.49634 19.6471C9.42063 21.1883 8.18827 22.4206 6.64715 22.4963C6.57282 22.5 6.49106 22.5 6.3959 22.4999L5.74995 22.4999C5.70759 22.4999 5.66565 22.5 5.62412 22.5C5.05285 22.5007 4.55944 22.5013 4.1291 22.3708C3.17029 22.0799 2.41998 21.3296 2.12913 20.3708C1.99859 19.9404 1.99917 19.447 1.99985 18.8758C1.9999 18.8342 1.99995 18.7923 1.99995 18.7499V12.1301C1.99995 12.0845 1.99994 12.0396 1.99992 11.9953C1.99958 10.9766 1.99934 10.2719 2.18502 9.60852C2.34896 9.02285 2.61837 8.472 2.98002 7.98303C3.38964 7.42921 3.94607 6.99673 4.75041 6.37157C4.7854 6.34438 4.82085 6.31682 4.85679 6.28887L7.45679 4.26664C7.51433 4.22189 7.57104 4.17774 7.62696 4.1342C8.86594 3.16957 9.71993 2.50468 10.6932 2.24116Z"/>
</g>
</symbol><symbol viewBox="0 0 24 24" id="Horizontal" xmlns="http://www.w3.org/2000/svg">
<g id="awHorizontal">
<path id="awVector (Stroke)" fill-rule="evenodd" clip-rule="evenodd" d="M16.2929 3.29289C16.6834 2.90237 17.3166 2.90237 17.7071 3.29289L21.2071 6.79289C21.5976 7.18342 21.5976 7.81658 21.2071 8.20711L17.7071 11.7071C17.3166 12.0976 16.6834 12.0976 16.2929 11.7071C15.9024 11.3166 15.9024 10.6834 16.2929 10.2929L18.0858 8.5H4.5C3.94772 8.5 3.5 8.05228 3.5 7.5C3.5 6.94772 3.94772 6.5 4.5 6.5H18.0858L16.2929 4.70711C15.9024 4.31658 15.9024 3.68342 16.2929 3.29289ZM7.70711 12.2929C8.09763 12.6834 8.09763 13.3166 7.70711 13.7071L5.91421 15.5H19.5C20.0523 15.5 20.5 15.9477 20.5 16.5C20.5 17.0523 20.0523 17.5 19.5 17.5H5.91421L7.70711 19.2929C8.09763 19.6834 8.09763 20.3166 7.70711 20.7071C7.31658 21.0976 6.68342 21.0976 6.29289 20.7071L2.79289 17.2071C2.40237 16.8166 2.40237 16.1834 2.79289 15.7929L6.29289 12.2929C6.68342 11.9024 7.31658 11.9024 7.70711 12.2929Z"/>
</g>
</symbol><symbol viewBox="0 0 24 24" id="Info" xmlns="http://www.w3.org/2000/svg">
<g id="axInfo">
<g id="axVector">
<path fill-rule="evenodd" clip-rule="evenodd" d="M12 9.5C12.5523 9.5 13 9.94771 13 10.5V16.5C13 17.0523 12.5523 17.5 12 17.5C11.4477 17.5 11 17.0523 11 16.5V10.5C11 9.94771 11.4477 9.5 12 9.5Z"/>
<path d="M13 7C13 7.55228 12.5523 8 12 8C11.4477 8 11 7.55228 11 7C11 6.44772 11.4477 6 12 6C12.5523 6 13 6.44772 13 7Z"/>
<path fill-rule="evenodd" clip-rule="evenodd" d="M12 3C7.02944 3 3 7.02944 3 12C3 16.9706 7.02944 21 12 21C16.9706 21 21 16.9706 21 12C21 7.02944 16.9706 3 12 3ZM1 12C1 5.92487 5.92487 1 12 1C18.0751 1 23 5.92487 23 12C23 18.0751 18.0751 23 12 23C5.92487 23 1 18.0751 1 12Z"/>
</g>
</g>
</symbol><symbol viewBox="0 0 24 24" id="Instagram" xmlns="http://www.w3.org/2000/svg">
<g id="azInstagram">
<g id="azVector">
<path d="M21.9804 7.88005C21.9336 6.81738 21.7617 6.0868 21.5156 5.45374C21.2616 4.78176 20.8709 4.18014 20.359 3.68002C19.8589 3.1721 19.2533 2.77743 18.5891 2.52745C17.9524 2.28127 17.2256 2.10943 16.163 2.06257C15.0923 2.01175 14.7525 2 12.0371 2C9.32172 2 8.98185 2.01175 7.9152 2.05861C6.85253 2.10546 6.12195 2.27746 5.48904 2.52348C4.81692 2.77743 4.2153 3.16814 3.71517 3.68002C3.20726 4.18014 2.81274 4.78573 2.5626 5.44992C2.31643 6.0868 2.14458 6.81341 2.09773 7.87609C2.04691 8.9467 2.03516 9.28658 2.03516 12.002C2.03516 14.7173 2.04691 15.0572 2.09376 16.1239C2.14061 17.1865 2.31261 17.9171 2.55879 18.5502C2.81274 19.2221 3.20726 19.8238 3.71517 20.3239C4.2153 20.8318 4.82088 21.2265 5.48507 21.4765C6.12195 21.7226 6.84856 21.8945 7.91139 21.9413C8.97788 21.9883 9.31791 21.9999 12.0333 21.9999C14.7486 21.9999 15.0885 21.9883 16.1552 21.9413C17.2178 21.8945 17.9484 21.7226 18.5813 21.4765C19.9254 20.9568 20.9881 19.8941 21.5078 18.5502C21.7538 17.9133 21.9258 17.1865 21.9726 16.1239C22.0195 15.0572 22.0312 14.7173 22.0312 12.002C22.0312 9.28658 22.0273 8.9467 21.9804 7.88005ZM20.1794 16.0457C20.1364 17.0225 19.9723 17.5499 19.8355 17.9015C19.4995 18.7728 18.808 19.4643 17.9367 19.8004C17.585 19.9372 17.0538 20.1012 16.0808 20.1441C15.026 20.1911 14.7096 20.2027 12.0411 20.2027C9.37255 20.2027 9.0522 20.1911 8.00113 20.1441C7.02437 20.1012 6.49693 19.9372 6.1453 19.8004C5.71171 19.6402 5.31704 19.3862 4.9967 19.0541C4.6646 18.7298 4.41065 18.3391 4.2504 17.9055C4.11365 17.5539 3.94959 17.0225 3.9067 16.0497C3.8597 14.9948 3.8481 14.6783 3.8481 12.0097C3.8481 9.34122 3.8597 9.02087 3.9067 7.96995C3.94959 6.99319 4.11365 6.46575 4.2504 6.11412C4.41065 5.68038 4.6646 5.28586 5.00067 4.96536C5.32483 4.63327 5.71553 4.37931 6.14927 4.21921C6.5009 4.08247 7.03231 3.9184 8.00509 3.87537C9.05999 3.82851 9.37652 3.81676 12.0449 3.81676C14.7174 3.81676 15.0337 3.82851 16.0848 3.87537C17.0616 3.9184 17.589 4.08247 17.9406 4.21921C18.3742 4.37931 18.7689 4.63327 19.0892 4.96536C19.4213 5.28967 19.6753 5.68038 19.8355 6.11412C19.9723 6.46575 20.1364 6.99701 20.1794 7.96995C20.2262 9.02484 20.238 9.34122 20.238 12.0097C20.238 14.6783 20.2262 14.9908 20.1794 16.0457Z"/>
<path d="M12.0371 6.86423C9.20069 6.86423 6.89937 9.1654 6.89937 12.002C6.89937 14.8385 9.20069 17.1397 12.0371 17.1397C14.8736 17.1397 17.1748 14.8385 17.1748 12.002C17.1748 9.1654 14.8736 6.86423 12.0371 6.86423ZM12.0371 15.3347C10.197 15.3347 8.70438 13.8422 8.70438 12.002C8.70438 10.1617 10.197 8.66924 12.0371 8.66924C13.8774 8.66924 15.3698 10.1617 15.3698 12.002C15.3698 13.8422 13.8774 15.3347 12.0371 15.3347Z"/>
<path d="M18.5776 6.6611C18.5776 7.32346 18.0405 7.86053 17.378 7.86053C16.7156 7.86053 16.1785 7.32346 16.1785 6.6611C16.1785 5.99858 16.7156 5.46167 17.378 5.46167C18.0405 5.46167 18.5776 5.99858 18.5776 6.6611Z"/>
</g>
</g>
</symbol><symbol viewBox="0 0 24 24" id="Instagram-filled" xmlns="http://www.w3.org/2000/svg">
<g id="ayInstagram-filled">
<path id="aySubtract" fill-rule="evenodd" clip-rule="evenodd" d="M2 12C2 7.80863 2 5.71294 3.05041 4.26718C3.38964 3.80026 3.80026 3.38964 4.26718 3.05041C5.71294 2 7.80863 2 12 2C16.1914 2 18.2871 2 19.7328 3.05041C20.1997 3.38964 20.6104 3.80026 20.9496 4.26718C22 5.71294 22 7.80863 22 12C22 16.1914 22 18.2871 20.9496 19.7328C20.6104 20.1997 20.1997 20.6104 19.7328 20.9496C18.2871 22 16.1914 22 12 22C7.80863 22 5.71294 22 4.26718 20.9496C3.80026 20.6104 3.38964 20.1997 3.05041 19.7328C2 18.2871 2 16.1914 2 12ZM12 6.70588C9.07632 6.70588 6.70588 9.07632 6.70588 12C6.70588 14.9237 9.07632 17.2941 12 17.2941C14.9237 17.2941 17.2941 14.9237 17.2941 12C17.2941 9.07632 14.9237 6.70588 12 6.70588ZM12 15.3088C10.1762 15.3088 8.69118 13.8238 8.69118 12C8.69118 10.1749 10.1762 8.69118 12 8.69118C13.8238 8.69118 15.3088 10.1749 15.3088 12C15.3088 13.8238 13.8238 15.3088 12 15.3088ZM18.3966 6.30883C18.3966 6.69844 18.0808 7.01427 17.6912 7.01427C17.3016 7.01427 16.9857 6.69844 16.9857 6.30883C16.9857 5.91923 17.3016 5.60339 17.6912 5.60339C18.0808 5.60339 18.3966 5.91923 18.3966 6.30883Z"/>
</g>
</symbol><symbol viewBox="0 0 24 24" id="Layouts" xmlns="http://www.w3.org/2000/svg">
<g id="bbLayouts">
<g id="bbVector">
<path fill-rule="evenodd" clip-rule="evenodd" d="M11.5528 1.10557C11.8343 0.964809 12.1657 0.964809 12.4472 1.10557L22.4472 6.10557C22.786 6.27497 23 6.62123 23 7C23 7.37877 22.786 7.72504 22.4472 7.89443L12.4472 12.8944C12.1657 13.0352 11.8343 13.0352 11.5528 12.8944L1.55276 7.89443C1.21398 7.72504 0.999975 7.37877 0.999975 7C0.999975 6.62123 1.21398 6.27497 1.55276 6.10557L11.5528 1.10557ZM4.23604 7L12 10.882L19.7639 7L12 3.11803L4.23604 7Z"/>
<path fill-rule="evenodd" clip-rule="evenodd" d="M1.10555 11.5528C1.35254 11.0588 1.95321 10.8586 2.44719 11.1056L12 15.882L21.5528 11.1056C22.0467 10.8586 22.6474 11.0588 22.8944 11.5528C23.1414 12.0468 22.9412 12.6474 22.4472 12.8944L12.4472 17.8944C12.1657 18.0352 11.8343 18.0352 11.5528 17.8944L1.55276 12.8944C1.05878 12.6474 0.858558 12.0468 1.10555 11.5528Z"/>
<path fill-rule="evenodd" clip-rule="evenodd" d="M1.10555 16.5528C1.35254 16.0588 1.95321 15.8586 2.44719 16.1056L12 20.882L21.5528 16.1056C22.0467 15.8586 22.6474 16.0588 22.8944 16.5528C23.1414 17.0468 22.9412 17.6474 22.4472 17.8944L12.4472 22.8944C12.1657 23.0352 11.8343 23.0352 11.5528 22.8944L1.55276 17.8944C1.05878 17.6474 0.858558 17.0468 1.10555 16.5528Z"/>
</g>
</g>
</symbol><symbol viewBox="0 0 24 24" id="Linked-In" xmlns="http://www.w3.org/2000/svg">
<g id="bcLinked-In">
<g id="bcVector">
<path d="M21.995 22L22 21.9992V14.6642C22 11.0758 21.2275 8.31167 17.0325 8.31167C15.0158 8.31167 13.6625 9.41833 13.11 10.4675H13.0517V8.64667H9.07416V21.9992H13.2158V15.3875C13.2158 13.6467 13.5458 11.9633 15.7017 11.9633C17.8258 11.9633 17.8575 13.95 17.8575 15.4992V22H21.995Z"/>
<path d="M2.32999 8.6475H6.47666V22H2.32999V8.6475Z"/>
<path d="M4.40167 2C3.07583 2 2 3.07583 2 4.40167C2 5.7275 3.07583 6.82583 4.40167 6.82583C5.7275 6.82583 6.80333 5.7275 6.80333 4.40167C6.8025 3.07583 5.72667 2 4.40167 2Z"/>
</g>
</g>
</symbol><symbol viewBox="0 0 24 24" id="Login" xmlns="http://www.w3.org/2000/svg">
<g id="bdLogin">
<g id="bdUnion">
<path d="M7.5 20.75C6.94772 20.75 6.5 21.1977 6.5 21.75C6.5 22.3023 6.94772 22.75 7.5 22.75H17.75C20.5114 22.75 22.75 20.5114 22.75 17.75V6.25C22.75 3.48857 20.5114 1.25 17.75 1.25H7.5C6.94771 1.25 6.5 1.69771 6.5 2.25C6.5 2.80228 6.94771 3.25 7.5 3.25L17.75 3.25C19.4069 3.25 20.75 4.59314 20.75 6.25V17.75C20.75 19.4069 19.4069 20.75 17.75 20.75H7.5Z"/>
<path d="M18.25 12C18.25 12.2652 18.1446 12.5196 17.9571 12.7071L13.4571 17.2071C13.0666 17.5976 12.4334 17.5976 12.0429 17.2071C11.6524 16.8166 11.6524 16.1834 12.0429 15.7929L14.8358 13L2.25 13C1.69771 13 1.25 12.5523 1.25 12C1.25 11.4477 1.69771 11 2.25 11L14.8358 11L12.0429 8.20711C11.6524 7.81658 11.6524 7.18342 12.0429 6.79289C12.4334 6.40237 13.0666 6.40237 13.4571 6.79289L17.9571 11.2929C18.1446 11.4804 18.25 11.7348 18.25 12Z"/>
</g>
</g>
</symbol><symbol viewBox="0 0 24 24" id="Mail" xmlns="http://www.w3.org/2000/svg">
<g id="bgMail">
<path id="bgUnion" fill-rule="evenodd" clip-rule="evenodd" d="M22.75 18V7C22.75 5.34314 21.4069 4 19.75 4L4.25 4.00002C2.59314 4.00002 1.25 5.34316 1.25 7.00002V18C1.25 19.6568 2.59314 21 4.25 21L19.75 21C21.4069 21 22.75 19.6568 22.75 18ZM20.75 9.25946V18C20.75 18.5523 20.3023 19 19.75 19L4.25 19C3.69772 19 3.25 18.5523 3.25 18L3.25 9.25933L10.3132 14.0623C11.3312 14.7546 12.6689 14.7546 13.687 14.0623L20.75 9.25946ZM20.7386 6.84861C20.6657 6.36816 20.2508 6 19.75 6L4.25 6.00002C3.74922 6.00002 3.33442 6.36811 3.26141 6.84849L11.4378 12.4084C11.7771 12.6392 12.223 12.6392 12.5624 12.4084L20.7386 6.84861Z"/>
</g>
</symbol><symbol viewBox="0 0 24 24" id="Mark" xmlns="http://www.w3.org/2000/svg">
<g id="bhMark">
<path id="bhLine (Stroke)" fill-rule="evenodd" clip-rule="evenodd" d="M21.7071 5.29289C22.0976 5.68342 22.0976 6.31658 21.7071 6.70711L9.70711 18.7071C9.31658 19.0976 8.68342 19.0976 8.29289 18.7071L2.29289 12.7071C1.90237 12.3166 1.90237 11.6834 2.29289 11.2929C2.68342 10.9024 3.31658 10.9024 3.70711 11.2929L9 16.5858L20.2929 5.29289C20.6834 4.90237 21.3166 4.90237 21.7071 5.29289Z"/>
</g>
</symbol><symbol viewBox="0 0 24 24" id="Mention" xmlns="http://www.w3.org/2000/svg">
<g id="biMention">
<g id="biVector">
<path fill-rule="evenodd" clip-rule="evenodd" d="M6.5 12C6.5 8.96243 8.96243 6.5 12 6.5C15.0376 6.5 17.5 8.96243 17.5 12C17.5 15.0376 15.0376 17.5 12 17.5C8.96243 17.5 6.5 15.0376 6.5 12ZM12 8.5C10.067 8.5 8.5 10.067 8.5 12C8.5 13.933 10.067 15.5 12 15.5C13.933 15.5 15.5 13.933 15.5 12C15.5 10.067 13.933 8.5 12 8.5Z"/>
<path fill-rule="evenodd" clip-rule="evenodd" d="M12 3.25C7.16751 3.25 3.25 7.16751 3.25 12C3.25 16.8325 7.16751 20.75 12 20.75C12.5523 20.75 13 21.1977 13 21.75C13 22.3023 12.5523 22.75 12 22.75C6.06294 22.75 1.25 17.9371 1.25 12C1.25 6.06294 6.06294 1.25 12 1.25C17.9371 1.25 22.75 6.06294 22.75 12C22.75 13.1233 22.5505 14.7484 22.0293 16.1288C21.5428 17.4173 20.5647 19 18.75 19C17.8608 19 16.9774 18.767 16.3394 18.0611C15.7212 17.3771 15.5 16.4292 15.5 15.375V8.25C15.5 7.69772 15.9477 7.25 16.5 7.25C17.0523 7.25 17.5 7.69772 17.5 8.25V15.375C17.5 16.1958 17.6789 16.5604 17.8232 16.7201C17.9479 16.858 18.1895 17 18.75 17C19.1853 17 19.7072 16.6168 20.1582 15.4224C20.5745 14.3199 20.75 12.945 20.75 12C20.75 7.16751 16.8325 3.25 12 3.25Z"/>
</g>
</g>
</symbol><symbol viewBox="0 0 24 24" id="Minus" xmlns="http://www.w3.org/2000/svg">
<g id="blMinus">
<path id="blminus" fill-rule="evenodd" clip-rule="evenodd" d="M1 12C1 11.4477 1.44772 11 2 11V12V13C1.44772 13 1 12.5523 1 12ZM22 12L21.9999 13H2V12V11H21.9994L22 12ZM22 12L21.9999 13C22.5522 13 23 12.5523 23 12C23 11.4477 22.5517 11 21.9994 11L22 12Z"/>
</g>
</symbol><symbol viewBox="0 0 24 24" id="Minus-round" xmlns="http://www.w3.org/2000/svg">
<g id="bkMinus-round">
<g id="bkMinus">
<g id="bkVector">
<path fill-rule="evenodd" clip-rule="evenodd" d="M5.75 12C5.75 11.4477 6.19772 11 6.75 11L17.25 11C17.8023 11 18.25 11.4477 18.25 12C18.25 12.5523 17.8023 13 17.25 13L6.75 13C6.19772 13 5.75 12.5523 5.75 12Z"/>
<path fill-rule="evenodd" clip-rule="evenodd" d="M12 3C7.02944 3 3 7.02944 3 12C3 16.9706 7.02944 21 12 21C16.9706 21 21 16.9706 21 12C21 7.02944 16.9706 3 12 3ZM1 12C1 5.92487 5.92487 1 12 1C18.0751 1 23 5.92487 23 12C23 18.0751 18.0751 23 12 23C5.92487 23 1 18.0751 1 12Z"/>
</g>
</g>
</g>
</symbol><symbol viewBox="0 0 24 24" id="Play" xmlns="http://www.w3.org/2000/svg">
<g id="bpPlay">
<g id="bpVector">
<path fill-rule="evenodd" clip-rule="evenodd" d="M16.0678 10.411C17.1151 11.2115 17.1151 12.7886 16.0678 13.5891L11.4879 17.0895C10.1718 18.0954 8.27336 17.1569 8.27336 15.5005V8.49961C8.27336 6.84313 10.1718 5.90469 11.4879 6.91058L16.0678 10.411ZM14.8533 12L10.2734 8.49961L10.2734 15.5005L14.8533 12Z"/>
<path fill-rule="evenodd" clip-rule="evenodd" d="M12 3C7.02944 3 3 7.02944 3 12C3 16.9706 7.02944 21 12 21C16.9706 21 21 16.9706 21 12C21 7.02944 16.9706 3 12 3ZM1 12C1 5.92487 5.92487 1 12 1C18.0751 1 23 5.92487 23 12C23 18.0751 18.0751 23 12 23C5.92487 23 1 18.0751 1 12Z"/>
</g>
</g>
</symbol><symbol viewBox="0 0 24 24" id="Plus" xmlns="http://www.w3.org/2000/svg">
<g id="brPlus">
<path id="brplus" fill-rule="evenodd" clip-rule="evenodd" d="M12 1C12.5523 1 13 1.44772 13 2V11H22C22.5523 11 23 11.4477 23 12C23 12.5523 22.5523 13 22 13H13V22C13 22.5523 12.5523 23 12 23C11.4477 23 11 22.5523 11 22V13H2C1.44772 13 1 12.5523 1 12C1 11.4477 1.44772 11 2 11H11V2C11 1.44772 11.4477 1 12 1Z"/>
</g>
</symbol><symbol viewBox="0 0 24 24" id="Plus-round" xmlns="http://www.w3.org/2000/svg">
<g id="bqPlus-round">
<g id="bqPlus">
<g id="bqVector">
<path fill-rule="evenodd" clip-rule="evenodd" d="M5.75 12C5.75 11.4477 6.19772 11 6.75 11L17.25 11C17.8023 11 18.25 11.4477 18.25 12C18.25 12.5523 17.8023 13 17.25 13L6.75 13C6.19772 13 5.75 12.5523 5.75 12Z"/>
<path fill-rule="evenodd" clip-rule="evenodd" d="M12 5.75C12.5523 5.75 13 6.19772 13 6.75V17.25C13 17.8023 12.5523 18.25 12 18.25C11.4477 18.25 11 17.8023 11 17.25V6.75C11 6.19772 11.4477 5.75 12 5.75Z"/>
<path fill-rule="evenodd" clip-rule="evenodd" d="M12 3C7.02944 3 3 7.02944 3 12C3 16.9706 7.02944 21 12 21C16.9706 21 21 16.9706 21 12C21 7.02944 16.9706 3 12 3ZM1 12C1 5.92487 5.92487 1 12 1C18.0751 1 23 5.92487 23 12C23 18.0751 18.0751 23 12 23C5.92487 23 1 18.0751 1 12Z"/>
</g>
</g>
</g>
</symbol><symbol viewBox="0 0 24 24" id="Profile" xmlns="http://www.w3.org/2000/svg">
<g id="bsProfile">
<g id="bsPerson">
<g id="bsVector">
<path fill-rule="evenodd" clip-rule="evenodd" d="M12.0002 3.25C10.0672 3.25 8.50021 4.817 8.50021 6.75C8.50021 8.683 10.0672 10.25 12.0002 10.25C13.9332 10.25 15.5002 8.683 15.5002 6.75C15.5002 4.817 13.9332 3.25 12.0002 3.25ZM6.50021 6.75C6.50021 3.71243 8.96264 1.25 12.0002 1.25C15.0378 1.25 17.5002 3.71243 17.5002 6.75C17.5002 9.78757 15.0378 12.25 12.0002 12.25C8.96264 12.25 6.50021 9.78757 6.50021 6.75Z"/>
<path fill-rule="evenodd" clip-rule="evenodd" d="M6.10427 15.25C5.41095 15.25 4.86904 15.5876 4.64907 16.0726C4.34461 16.7439 4.06891 17.5432 4.00385 18.3012C3.97477 18.64 4.11605 18.8897 4.31073 19.0107C5.33989 19.65 7.7246 20.75 12.0002 20.75C16.2758 20.75 18.6605 19.65 19.6897 19.0107C19.8844 18.8897 20.0257 18.64 19.9966 18.3012C19.9315 17.5432 19.6558 16.7439 19.3514 16.0726C19.1314 15.5876 18.5895 15.25 17.8961 15.25H6.10427ZM2.82764 15.2466C3.43558 13.9061 4.79312 13.25 6.10427 13.25H17.8961C19.2073 13.25 20.5648 13.9061 21.1728 15.2466C21.522 16.0165 21.8967 17.0515 21.9892 18.1301C22.0735 19.1124 21.6653 20.1379 20.745 20.7096C19.3915 21.5504 16.6398 22.75 12.0002 22.75C7.36061 22.75 4.60891 21.5504 3.25537 20.7096C2.33511 20.1379 1.92687 19.1124 2.01118 18.1301C2.10375 17.0515 2.47845 16.0165 2.82764 15.2466Z"/>
</g>
</g>
</g>
</symbol><symbol viewBox="0 0 24 24" id="Right" xmlns="http://www.w3.org/2000/svg">
<path fill-rule="evenodd" clip-rule="evenodd" d="M14.7929 6.79289C15.1834 6.40237 15.8166 6.40237 16.2071 6.79289L20.7071 11.2929C21.0976 11.6834 21.0976 12.3166 20.7071 12.7071L16.2071 17.2071C15.8166 17.5976 15.1834 17.5976 14.7929 17.2071C14.4024 16.8166 14.4024 16.1834 14.7929 15.7929L17.5858 13H4C3.44772 13 3 12.5523 3 12C3 11.4477 3.44772 11 4 11H17.5858L14.7929 8.20711C14.4024 7.81658 14.4024 7.18342 14.7929 6.79289Z"/>
</symbol><symbol viewBox="0 0 24 24" id="Right-chevron" xmlns="http://www.w3.org/2000/svg">
<g id="btRight-chevron">
<path id="btLine (Stroke)" fill-rule="evenodd" clip-rule="evenodd" d="M8.29289 4.29289C8.68342 3.90237 9.31658 3.90237 9.70711 4.29289L16.7071 11.2929C17.0976 11.6834 17.0976 12.3166 16.7071 12.7071L9.70711 19.7071C9.31658 20.0976 8.68342 20.0976 8.29289 19.7071C7.90237 19.3166 7.90237 18.6834 8.29289 18.2929L14.5858 12L8.29289 5.70711C7.90237 5.31658 7.90237 4.68342 8.29289 4.29289Z"/>
</g>
</symbol><symbol viewBox="0 0 24 24" id="Share" xmlns="http://www.w3.org/2000/svg">
<g id="bwShare">
<path id="bwVector (Stroke)" fill-rule="evenodd" clip-rule="evenodd" d="M18.375 3.25C17.0633 3.25 16 4.31332 16 5.625C16 5.88361 16.041 6.13068 16.116 6.3612C16.4261 7.31368 17.3217 8 18.375 8C19.6867 8 20.75 6.93668 20.75 5.625C20.75 4.31332 19.6867 3.25 18.375 3.25ZM14 5.625C14 3.20875 15.9588 1.25 18.375 1.25C20.7912 1.25 22.75 3.20875 22.75 5.625C22.75 8.04125 20.7912 10 18.375 10C16.8404 10 15.4919 9.21034 14.7112 8.01651L9.83967 10.4561C10.0628 11.2703 10.0467 12.1392 9.79465 12.9444L15.1247 15.4466C15.9247 14.5594 17.0841 14 18.375 14C20.7912 14 22.75 15.9588 22.75 18.375C22.75 20.7912 20.7912 22.75 18.375 22.75C15.9588 22.75 14 20.7912 14 18.375C14 17.9696 14.0554 17.5763 14.1591 17.2027L8.76558 14.6707C7.97125 15.4895 6.85796 16 5.625 16C3.20875 16 1.25 14.0412 1.25 11.625C1.25 9.20875 3.20875 7.25 5.625 7.25C6.91778 7.25 8.07871 7.811 8.87878 8.70049L14.028 6.12188C14.0095 5.95859 14 5.79278 14 5.625ZM5.625 9.25C4.31332 9.25 3.25 10.3133 3.25 11.625C3.25 12.9367 4.31332 14 5.625 14C6.46827 14 7.20976 13.5612 7.63254 12.8948C8.09256 12.1697 8.11799 11.2121 7.69747 10.4638C7.28913 9.73724 6.51331 9.25 5.625 9.25ZM18.375 16C17.4933 16 16.7224 16.48 16.3116 17.1978C16.1136 17.5439 16 17.9447 16 18.375C16 19.6867 17.0633 20.75 18.375 20.75C19.6867 20.75 20.75 19.6867 20.75 18.375C20.75 17.0633 19.6867 16 18.375 16Z"/>
</g>
</symbol><symbol viewBox="0 0 24 24" id="Star" xmlns="http://www.w3.org/2000/svg">
<g id="byStar">
<path id="byStar (Stroke)" fill-rule="evenodd" clip-rule="evenodd" d="M10.1693 2.20161C10.8641 0.599464 13.1362 0.599462 13.8309 2.20161L15.9325 7.04812L21.1913 7.54921C22.9297 7.71487 23.6318 9.87574 22.3227 11.0316L18.3629 14.528L19.5113 19.6842C19.891 21.3887 18.0528 22.7242 16.5491 21.8364L12.0001 19.1508L7.45118 21.8364C5.9474 22.7242 4.10925 21.3887 4.48891 19.6842L5.63737 14.528L1.67751 11.0316C0.368464 9.87574 1.07057 7.71487 2.80899 7.54921L8.06773 7.04812L10.1693 2.20161ZM14.1017 7.84201L12.0001 2.9955L9.89851 7.84201C9.60936 8.50881 8.98054 8.96568 8.25702 9.03462L2.99829 9.53572L6.95815 13.0321C7.50297 13.5132 7.74316 14.2524 7.58515 14.9618L6.43668 20.118L10.9856 17.4324C11.6115 17.0629 12.3888 17.0629 13.0146 17.4324L17.5636 20.118L16.4151 14.9618C16.2571 14.2524 16.4973 13.5132 17.0421 13.0321L21.002 9.53572L15.7432 9.03462C15.0197 8.96568 14.3909 8.50881 14.1017 7.84201Z"/>
</g>
</symbol><symbol viewBox="0 0 24 24" id="Twitter" xmlns="http://www.w3.org/2000/svg">
<g id="bzTwitter">
<path id="bzVector" d="M22.5 5.77233C21.7271 6.10027 20.8978 6.32267 20.0264 6.42196C20.9161 5.91181 21.5972 5.10263 21.92 4.1414C21.0854 4.61383 20.1642 4.95688 19.1826 5.14285C18.3966 4.33994 17.2785 3.83984 16.0384 3.83984C13.6593 3.83984 11.7303 5.68691 11.7303 7.9637C11.7303 8.2866 11.7683 8.60199 11.8418 8.90357C8.26201 8.73141 5.08768 7.08917 2.96314 4.59372C2.59176 5.20189 2.38049 5.91053 2.38049 6.66697C2.38049 8.09814 3.14161 9.36093 4.2964 10.0997C3.5904 10.0771 2.92639 9.89116 2.34508 9.58205V9.63357C2.34508 11.6314 3.83056 13.2988 5.80024 13.6783C5.43936 13.7713 5.05882 13.8228 4.66514 13.8228C4.38696 13.8228 4.11794 13.7964 3.85417 13.7461C4.40267 15.3859 5.99315 16.5783 7.87756 16.611C6.40388 17.7167 4.54573 18.3739 2.52749 18.3739C2.17976 18.3739 1.83724 18.3537 1.5 18.3173C3.40671 19.4896 5.67036 20.1732 8.10327 20.1732C16.028 20.1732 20.3597 13.8881 20.3597 8.43741L20.3453 7.90341C21.1917 7.32537 21.9239 6.59912 22.5 5.77233Z"/>
</g>
</symbol><symbol viewBox="0 0 24 24" id="Upload" xmlns="http://www.w3.org/2000/svg">
<g id="caUpload">
<g id="caUpload_2">
<path id="caVector (Stroke)" fill-rule="evenodd" clip-rule="evenodd" d="M11.2929 1.54289C11.6834 1.15237 12.3166 1.15237 12.7071 1.54289L17.2071 6.04289C17.5976 6.43342 17.5976 7.06658 17.2071 7.45711C16.8166 7.84763 16.1834 7.84763 15.7929 7.45711L13 4.66421V17.25C13 17.8023 12.5523 18.25 12 18.25C11.4477 18.25 11 17.8023 11 17.25V4.66421L8.20711 7.45711C7.81658 7.84763 7.18342 7.84763 6.79289 7.45711C6.40237 7.06658 6.40237 6.43342 6.79289 6.04289L11.2929 1.54289ZM2.25 14C2.80228 14 3.25 14.4477 3.25 15V18.75C3.25 19.8546 4.14543 20.75 5.25 20.75H18.75C19.8546 20.75 20.75 19.8546 20.75 18.75V15C20.75 14.4477 21.1977 14 21.75 14C22.3023 14 22.75 14.4477 22.75 15V18.75C22.75 20.9591 20.9591 22.75 18.75 22.75H5.25C3.04086 22.75 1.25 20.9591 1.25 18.75V15C1.25 14.4477 1.69772 14 2.25 14Z"/>
</g>
</g>
</symbol><symbol viewBox="0 0 24 24" id="YouTube" xmlns="http://www.w3.org/2000/svg">
<g id="cbYouTube">
<path id="cbSubtract" fill-rule="evenodd" clip-rule="evenodd" d="M21.3903 4.11358C22.4182 4.39044 23.2288 5.20086 23.5055 6.22899C24.0197 8.10691 23.9999 12.0213 23.9999 12.0213C23.9999 12.0213 23.9999 15.9158 23.5057 17.7939C23.2288 18.8218 22.4184 19.6324 21.3903 19.9091C19.5122 20.4035 12 20.4035 12 20.4035C12 20.4035 4.50731 20.4035 2.60961 19.8895C1.58148 19.6127 0.771054 18.802 0.4942 17.7741C0 15.9158 0 12.0015 0 12.0015C0 12.0015 0 8.10691 0.4942 6.22899C0.770871 5.20104 1.60125 4.37066 2.60943 4.09399C4.48753 3.59961 11.9998 3.59961 11.9998 3.59961C11.9998 3.59961 19.5122 3.59961 21.3903 4.11358ZM15.8549 12.0016L9.60788 15.5996V8.40355L15.8549 12.0016Z"/>
</g>
</symbol><symbol viewBox="0 0 28 20" id="braces" xmlns="http://www.w3.org/2000/svg">
<g id="afbraces">
<path id="afRectangle 267" d="M18 8.92534C18 8.63119 18.1295 8.35196 18.3541 8.16195L28 0V19C28 19.5523 27.5523 20 27 20H19C18.4477 20 18 19.5523 18 19V8.92534Z"/>
<path id="afRectangle 268" d="M0 8.92534C0 8.63119 0.129507 8.35196 0.354058 8.16195L10 0V19C10 19.5523 9.55228 20 9 20H1C0.447715 20 0 19.5523 0 19V8.92534Z"/>
</g>
</symbol><symbol viewBox="0 0 24 24" id="check" xmlns="http://www.w3.org/2000/svg">
<g id="akcheck">
<g id="akcheck_2">
<g id="akVector">
<path d="M12 23C18.0651 23 23 18.0655 23 12C23 10.9531 22.8539 9.92139 22.5645 8.93333C22.4219 8.44747 21.9146 8.1684 21.4274 8.31095C20.9411 8.45306 20.6629 8.9622 20.805 9.44806C21.0447 10.2689 21.1667 11.1279 21.1667 12C21.1667 17.0544 17.0544 21.1667 12 21.1667C6.94558 21.1667 2.83333 17.0544 2.83333 12C2.83333 6.94558 6.94558 2.83333 12 2.83333C13.8369 2.83333 15.6042 3.37044 17.1108 4.38625C17.5302 4.66935 18.1004 4.55813 18.3831 4.13873C18.666 3.71889 18.5556 3.14911 18.1358 2.86623C16.3253 1.64543 14.2037 1 12 1C5.93492 1 1 5.93447 1 12C1 18.0655 5.93492 23 12 23Z"/>
<path d="M22.2928 2.29279L11.9998 12.5853L8.70685 9.29279C8.31622 8.9024 7.68341 8.9024 7.29279 9.29279C6.9024 9.68341 6.9024 10.3162 7.29279 10.7068L11.2928 14.7068C11.4883 14.9024 11.7437 14.9998 11.9998 14.9998C12.2559 14.9998 12.5113 14.9024 12.7068 14.7068L23.7068 3.70685C24.0972 3.31622 24.0972 2.68341 23.7068 2.29279C23.3162 1.9024 22.6834 1.9024 22.2928 2.29279Z"/>
</g>
</g>
</g>
</symbol><symbol viewBox="0 0 24 25" id="danger" xmlns="http://www.w3.org/2000/svg">
<g id="aodanger">
<g id="aoVector">
<path fill-rule="evenodd" clip-rule="evenodd" d="M12 3.5C7.02944 3.5 3 7.52944 3 12.5C3 17.4706 7.02944 21.5 12 21.5C16.9706 21.5 21 17.4706 21 12.5C21 7.52944 16.9706 3.5 12 3.5ZM1 12.5C1 6.42487 5.92487 1.5 12 1.5C18.0751 1.5 23 6.42487 23 12.5C23 18.5751 18.0751 23.5 12 23.5C5.92487 23.5 1 18.5751 1 12.5Z"/>
<path d="M13 16.5C13 17.0523 12.5523 17.5 12 17.5C11.4477 17.5 11 17.0523 11 16.5C11 15.9477 11.4477 15.5 12 15.5C12.5523 15.5 13 15.9477 13 16.5Z"/>
<path fill-rule="evenodd" clip-rule="evenodd" d="M12 14.125C11.4477 14.125 11 13.6773 11 13.125V7.5C11 6.94772 11.4477 6.5 12 6.5C12.5523 6.5 13 6.94772 13 7.5V13.125C13 13.6773 12.5523 14.125 12 14.125Z"/>
</g>
</g>
</symbol><symbol viewBox="0 0 24 24" id="iPhone" xmlns="http://www.w3.org/2000/svg">
<g id="baiPhone">
<path id="baRectangle (Stroke)" fill-rule="evenodd" clip-rule="evenodd" d="M8.5 2.92188C7.67157 2.92188 7 3.59345 7 4.42188V19.5781C7 20.4066 7.67157 21.0781 8.5 21.0781H15.5C16.3284 21.0781 17 20.4066 17 19.5781V4.42188C17 3.59345 16.3284 2.92188 15.5 2.92188H15.4166L15.1731 3.50633C15.0178 3.87894 14.6537 4.12165 14.25 4.12165H9.75C9.34632 4.12165 8.98223 3.87894 8.82695 3.50633L8.58338 2.92188H8.5ZM5 4.42188C5 2.48888 6.567 0.921875 8.5 0.921875H15.5C17.433 0.921875 19 2.48888 19 4.42188V19.5781C19 21.5111 17.433 23.0781 15.5 23.0781H8.5C6.567 23.0781 5 21.5111 5 19.5781V4.42188Z"/>
</g>
</symbol><symbol viewBox="0 0 130 22" id="logoB" xmlns="http://www.w3.org/2000/svg">
<g id="belogo" clip-path="url(#beclip0_1692_43)">
<g id="beVector">
<path d="M-0.000244141 11.0998C-0.000244141 4.9998 3.29976 1.2998 8.69976 1.2998C12.7998 1.2998 16.0998 3.7998 16.6998 7.4998C16.7998 7.8998 16.4998 8.1998 16.0998 8.1998H13.4998C13.1998 8.1998 12.9998 7.9998 12.8998 7.6998C12.3998 5.7998 10.7998 4.5998 8.69976 4.5998C5.79976 4.5998 3.99976 7.0998 3.99976 11.0998C3.99976 15.0998 5.79976 17.5998 8.79976 17.5998C10.8998 17.5998 12.3998 16.4998 12.9998 14.6998C13.0998 14.3998 13.2998 14.1998 13.5998 14.1998H16.1998C16.5998 14.1998 16.8998 14.5998 16.7998 14.8998C16.1998 18.4998 12.9998 20.8998 8.79976 20.8998C3.29976 20.8998 -0.000244141 17.0998 -0.000244141 11.0998Z"/>
<path d="M24.2994 20.4001H21.3994C21.0994 20.4001 20.8994 20.2001 20.8994 19.9001V2.60006C20.8994 2.20006 21.2994 1.80006 21.6994 1.80006H28.6994C32.7994 1.80006 35.2994 4.10006 35.2994 7.70006C35.2994 9.80006 34.2994 11.7001 32.5994 12.7001C32.1994 12.9001 32.0994 13.4001 32.2994 13.7001L35.3994 19.6001C35.5994 19.9001 35.2994 20.3001 34.9994 20.3001H31.6994C31.4994 20.3001 31.2994 20.2001 31.1994 20.0001L28.2994 14.0001C28.1994 13.7001 27.8994 13.6001 27.5994 13.6001H25.2994C24.9994 13.6001 24.7994 13.8001 24.7994 14.1001V20.0001C24.8994 20.2001 24.5994 20.4001 24.2994 20.4001ZM24.8994 10.2001C24.8994 10.5001 25.0994 10.7001 25.3994 10.7001H28.3994C30.3994 10.7001 31.4994 9.60006 31.4994 7.80006C31.4994 6.00006 30.2994 4.90006 28.3994 4.90006H25.4994C25.1994 4.90006 24.9994 5.10006 24.9994 5.40006V10.2001H24.8994Z"/>
<path d="M51.4996 20.4001H40.4996C40.0996 20.4001 39.7996 20.1001 39.7996 19.7001V2.50006C39.7996 2.10006 40.0996 1.80006 40.4996 1.80006H51.4996C51.8996 1.80006 52.1996 2.10006 52.1996 2.50006V4.40006C52.1996 4.80006 51.8996 5.10006 51.4996 5.10006H44.1996C43.8996 5.10006 43.6996 5.30006 43.6996 5.60006V9.00006C43.6996 9.30006 43.8996 9.50006 44.1996 9.50006H50.9996C51.3996 9.50006 51.6996 9.80006 51.6996 10.2001V11.9001C51.6996 12.3001 51.3996 12.6001 50.9996 12.6001H44.1996C43.8996 12.6001 43.6996 12.8001 43.6996 13.1001V16.9001C43.6996 17.2001 43.8996 17.4001 44.1996 17.4001H51.4996C51.8996 17.4001 52.1996 17.7001 52.1996 18.1001V20.0001C52.1996 20.1001 51.8996 20.4001 51.4996 20.4001Z"/>
<path d="M66.9997 15.9001H61.2997C60.9997 15.9001 60.7997 16.1001 60.6997 16.3001L59.5997 20.0001C59.4997 20.3001 59.2997 20.4001 58.9997 20.4001H56.3997C55.9997 20.4001 55.6997 20.0001 55.7997 19.6001L61.7997 2.20006C61.8997 2.00006 62.0997 1.80006 62.3997 1.80006H66.0997C66.3997 1.80006 66.5997 2.00006 66.6997 2.20006L72.6997 19.6001C72.7997 20.0001 72.4997 20.4001 72.0997 20.4001H69.1997C68.8997 20.4001 68.6997 20.2001 68.5997 20.0001L67.4997 16.3001C67.4997 16.1001 67.1997 15.9001 66.9997 15.9001ZM62.0997 13.0001H66.1997C66.3997 13.0001 66.4997 12.8001 66.4997 12.6001L64.2997 5.60006H64.0997L61.8997 12.6001C61.7997 12.8001 61.8997 13.0001 62.0997 13.0001Z"/>
<path d="M78.9999 19.7005V5.50045C78.9999 5.20045 78.7999 5.00045 78.4999 5.00045H74.0999C73.6999 5.00045 73.2999 4.70045 73.2999 4.20045V2.50045C73.2999 2.10045 73.5999 1.70045 74.0999 1.70045H87.6998C88.0998 1.70045 88.4998 2.00045 88.4998 2.50045V4.20045C88.4998 4.60045 88.1998 5.00045 87.6998 5.00045H83.2999C82.9999 5.00045 82.7999 5.20045 82.7999 5.50045V19.8004C82.7999 20.2004 82.4999 20.5005 82.0999 20.5005H79.5999C79.2999 20.4004 78.9999 20.1005 78.9999 19.7005Z"/>
<path d="M103.8 20.4001H92.7996C92.3996 20.4001 92.0996 20.1001 92.0996 19.7001V2.50006C92.0996 2.10006 92.3996 1.80006 92.7996 1.80006H103.8C104.2 1.80006 104.5 2.10006 104.5 2.50006V4.40006C104.5 4.80006 104.2 5.10006 103.8 5.10006H96.4996C96.1996 5.10006 95.9996 5.30006 95.9996 5.60006V9.00006C95.9996 9.30006 96.1996 9.50006 96.4996 9.50006H103.3C103.7 9.50006 104 9.80006 104 10.2001V11.9001C104 12.3001 103.7 12.6001 103.3 12.6001H96.4996C96.1996 12.6001 95.9996 12.8001 95.9996 13.1001V16.9001C95.9996 17.2001 96.1996 17.4001 96.4996 17.4001H103.8C104.2 17.4001 104.5 17.7001 104.5 18.1001V20.0001C104.5 20.1001 104.2 20.4001 103.8 20.4001Z"/>
</g>
<g id="beVector_2">
<path d="M117.7 9.7L111.5 1.6C111.1 1.2 110.6 1 110.1 1C109.6 1 109.1 1.2 108.7 1.6C108 2.4 108 3.6 108.7 4.4L113.6 11L108.7 17.6C108 18.4 108 19.6 108.7 20.4C109.1 20.8 109.6 21 110.1 21C110.6 21 111.1 20.8 111.5 20.4L117.7 12.3C118.4 11.7 118.4 10.5 117.7 9.7Z"/>
<path d="M120.343 9.7L126.543 1.6C126.943 1.2 127.443 1 127.943 1C128.443 1 128.943 1.2 129.343 1.6C130.043 2.4 130.043 3.6 129.343 4.4L124.443 11L129.343 17.6C130.043 18.4 130.043 19.6 129.343 20.4C128.943 20.8 128.443 21 127.943 21C127.443 21 126.943 20.8 126.543 20.4L120.343 12.3C119.643 11.7 119.643 10.5 120.343 9.7Z"/>
</g>
</g>
<defs>
<clipPath id="beclip0_1692_43">
<rect width="130" height="22"/>
</clipPath>
</defs>
</symbol><symbol viewBox="0 0 130 22" id="logoW" xmlns="http://www.w3.org/2000/svg">
<g id="bflogo" clip-path="url(#bfclip0_2195_1131)">
<g id="bfVector">
<path d="M-0.000244141 11.0998C-0.000244141 4.9998 3.29976 1.2998 8.69976 1.2998C12.7998 1.2998 16.0998 3.7998 16.6998 7.4998C16.7998 7.8998 16.4998 8.1998 16.0998 8.1998H13.4998C13.1998 8.1998 12.9998 7.9998 12.8998 7.6998C12.3998 5.7998 10.7998 4.5998 8.69976 4.5998C5.79976 4.5998 3.99976 7.0998 3.99976 11.0998C3.99976 15.0998 5.79976 17.5998 8.79976 17.5998C10.8998 17.5998 12.3998 16.4998 12.9998 14.6998C13.0998 14.3998 13.2998 14.1998 13.5998 14.1998H16.1998C16.5998 14.1998 16.8998 14.5998 16.7998 14.8998C16.1998 18.4998 12.9998 20.8998 8.79976 20.8998C3.29976 20.8998 -0.000244141 17.0998 -0.000244141 11.0998Z"/>
<path d="M24.2994 20.4001H21.3994C21.0994 20.4001 20.8994 20.2001 20.8994 19.9001V2.60006C20.8994 2.20006 21.2994 1.80006 21.6994 1.80006H28.6994C32.7994 1.80006 35.2994 4.10006 35.2994 7.70006C35.2994 9.80006 34.2994 11.7001 32.5994 12.7001C32.1994 12.9001 32.0994 13.4001 32.2994 13.7001L35.3994 19.6001C35.5994 19.9001 35.2994 20.3001 34.9994 20.3001H31.6994C31.4994 20.3001 31.2994 20.2001 31.1994 20.0001L28.2994 14.0001C28.1994 13.7001 27.8994 13.6001 27.5994 13.6001H25.2994C24.9994 13.6001 24.7994 13.8001 24.7994 14.1001V20.0001C24.8994 20.2001 24.5994 20.4001 24.2994 20.4001ZM24.8994 10.2001C24.8994 10.5001 25.0994 10.7001 25.3994 10.7001H28.3994C30.3994 10.7001 31.4994 9.60006 31.4994 7.80006C31.4994 6.00006 30.2994 4.90006 28.3994 4.90006H25.4994C25.1994 4.90006 24.9994 5.10006 24.9994 5.40006V10.2001H24.8994Z"/>
<path d="M51.4996 20.4001H40.4996C40.0996 20.4001 39.7996 20.1001 39.7996 19.7001V2.50006C39.7996 2.10006 40.0996 1.80006 40.4996 1.80006H51.4996C51.8996 1.80006 52.1996 2.10006 52.1996 2.50006V4.40006C52.1996 4.80006 51.8996 5.10006 51.4996 5.10006H44.1996C43.8996 5.10006 43.6996 5.30006 43.6996 5.60006V9.00006C43.6996 9.30006 43.8996 9.50006 44.1996 9.50006H50.9996C51.3996 9.50006 51.6996 9.80006 51.6996 10.2001V11.9001C51.6996 12.3001 51.3996 12.6001 50.9996 12.6001H44.1996C43.8996 12.6001 43.6996 12.8001 43.6996 13.1001V16.9001C43.6996 17.2001 43.8996 17.4001 44.1996 17.4001H51.4996C51.8996 17.4001 52.1996 17.7001 52.1996 18.1001V20.0001C52.1996 20.1001 51.8996 20.4001 51.4996 20.4001Z"/>
<path d="M66.9997 15.9001H61.2997C60.9997 15.9001 60.7997 16.1001 60.6997 16.3001L59.5997 20.0001C59.4997 20.3001 59.2997 20.4001 58.9997 20.4001H56.3997C55.9997 20.4001 55.6997 20.0001 55.7997 19.6001L61.7997 2.20006C61.8997 2.00006 62.0997 1.80006 62.3997 1.80006H66.0997C66.3997 1.80006 66.5997 2.00006 66.6997 2.20006L72.6997 19.6001C72.7997 20.0001 72.4997 20.4001 72.0997 20.4001H69.1997C68.8997 20.4001 68.6997 20.2001 68.5997 20.0001L67.4997 16.3001C67.4997 16.1001 67.1997 15.9001 66.9997 15.9001ZM62.0997 13.0001H66.1997C66.3997 13.0001 66.4997 12.8001 66.4997 12.6001L64.2997 5.60006H64.0997L61.8997 12.6001C61.7997 12.8001 61.8997 13.0001 62.0997 13.0001Z"/>
<path d="M78.9999 19.7005V5.50045C78.9999 5.20045 78.7999 5.00045 78.4999 5.00045H74.0999C73.6999 5.00045 73.2999 4.70045 73.2999 4.20045V2.50045C73.2999 2.10045 73.5999 1.70045 74.0999 1.70045H87.6998C88.0998 1.70045 88.4998 2.00045 88.4998 2.50045V4.20045C88.4998 4.60045 88.1998 5.00045 87.6998 5.00045H83.2999C82.9999 5.00045 82.7999 5.20045 82.7999 5.50045V19.8004C82.7999 20.2004 82.4999 20.5005 82.0999 20.5005H79.5999C79.2999 20.4004 78.9999 20.1005 78.9999 19.7005Z"/>
<path d="M103.8 20.4001H92.7996C92.3996 20.4001 92.0996 20.1001 92.0996 19.7001V2.50006C92.0996 2.10006 92.3996 1.80006 92.7996 1.80006H103.8C104.2 1.80006 104.5 2.10006 104.5 2.50006V4.40006C104.5 4.80006 104.2 5.10006 103.8 5.10006H96.4996C96.1996 5.10006 95.9996 5.30006 95.9996 5.60006V9.00006C95.9996 9.30006 96.1996 9.50006 96.4996 9.50006H103.3C103.7 9.50006 104 9.80006 104 10.2001V11.9001C104 12.3001 103.7 12.6001 103.3 12.6001H96.4996C96.1996 12.6001 95.9996 12.8001 95.9996 13.1001V16.9001C95.9996 17.2001 96.1996 17.4001 96.4996 17.4001H103.8C104.2 17.4001 104.5 17.7001 104.5 18.1001V20.0001C104.5 20.1001 104.2 20.4001 103.8 20.4001Z"/>
</g>
<g id="bfVector_2">
<path d="M117.7 9.7L111.5 1.6C111.1 1.2 110.6 1 110.1 1C109.6 1 109.1 1.2 108.7 1.6C108 2.4 108 3.6 108.7 4.4L113.6 11L108.7 17.6C108 18.4 108 19.6 108.7 20.4C109.1 20.8 109.6 21 110.1 21C110.6 21 111.1 20.8 111.5 20.4L117.7 12.3C118.4 11.7 118.4 10.5 117.7 9.7Z"/>
<path d="M120.343 9.7L126.543 1.6C126.943 1.2 127.443 1 127.943 1C128.443 1 128.943 1.2 129.343 1.6C130.043 2.4 130.043 3.6 129.343 4.4L124.443 11L129.343 17.6C130.043 18.4 130.043 19.6 129.343 20.4C128.943 20.8 128.443 21 127.943 21C127.443 21 126.943 20.8 126.543 20.4L120.343 12.3C119.643 11.7 119.643 10.5 120.343 9.7Z"/>
</g>
</g>
<defs>
<clipPath id="bfclip0_2195_1131">
<rect width="130" height="22"/>
</clipPath>
</defs>
</symbol><symbol viewBox="0 0 24 24" id="mic" xmlns="http://www.w3.org/2000/svg">
<g id="bjmic">
<g id="bjVector">
<path fill-rule="evenodd" clip-rule="evenodd" d="M6.2 6.39961C6.2 3.19636 8.79675 0.599609 12 0.599609C15.2033 0.599609 17.8 3.19636 17.8 6.39961V11.1996C17.8 14.4029 15.2033 16.9996 12 16.9996C8.79675 16.9996 6.2 14.4029 6.2 11.1996V6.39961ZM12 2.59961C9.90132 2.59961 8.2 4.30093 8.2 6.39961V11.1996C8.2 13.2983 9.90132 14.9996 12 14.9996C14.0987 14.9996 15.8 13.2983 15.8 11.1996V6.39961C15.8 4.30093 14.0987 2.59961 12 2.59961Z"/>
<path fill-rule="evenodd" clip-rule="evenodd" d="M4 8.59961C4.55228 8.59961 5 9.04732 5 9.59961V11.1996C5 15.0656 8.13401 18.1996 12 18.1996C15.866 18.1996 19 15.0656 19 11.1996V9.59961C19 9.04732 19.4477 8.59961 20 8.59961C20.5523 8.59961 21 9.04732 21 9.59961V11.1996C21 16.1702 16.9706 20.1996 12 20.1996C7.02944 20.1996 3 16.1702 3 11.1996V9.59961C3 9.04732 3.44772 8.59961 4 8.59961Z"/>
<path fill-rule="evenodd" clip-rule="evenodd" d="M12 18.9996C12.5523 18.9996 13 19.4473 13 19.9996V21.3996H15.2C15.7523 21.3996 16.2 21.8473 16.2 22.3996C16.2 22.9519 15.7523 23.3996 15.2 23.3996H8.8C8.24772 23.3996 7.8 22.9519 7.8 22.3996C7.8 21.8473 8.24772 21.3996 8.8 21.3996H11V19.9996C11 19.4473 11.4477 18.9996 12 18.9996Z"/>
</g>
</g>
</symbol><symbol viewBox="0 0 24 24" id="off" xmlns="http://www.w3.org/2000/svg">
<g id="bmVolume/off">
<g id="bmVector">
<path fill-rule="evenodd" clip-rule="evenodd" d="M14.4 18.7C15.1 19.2 16 18.8 16 17.9V13.4L12.3 17.1L14.4 18.7Z"/>
<path fill-rule="evenodd" clip-rule="evenodd" d="M20.7 5.3C20.3 4.9 19.7 4.9 19.3 5.3L16 8.6V6.1C16 5.3 15 4.8 14.4 5.3L11.6 7.6C11.2 7.8 10.8 8 10.3 8H8C6.9 8 6 8.9 6 10V14C6 15.1 6.9 16 8 16H8.6L5.3 19.3C4.9 19.7 4.9 20.3 5.3 20.7C5.7 21.1 6.3 21.1 6.7 20.7L20.7 6.7C21.1 6.3 21.1 5.7 20.7 5.3Z"/>
</g>
</g>
</symbol><symbol viewBox="0 0 24 24" id="on" xmlns="http://www.w3.org/2000/svg">
<g id="bnVolume/on">
<g id="bnVector">
<path d="M2 10C2 8.9 2.9 8 4 8H6.3C6.8 8 7.2 7.8 7.5 7.6L10.3 5.3C11 4.8 12 5.2 12 6.1V17.9C12 18.7 11 19.2 10.4 18.7L7.6 16.4C7.2 16.2 6.8 16 6.3 16H4C2.9 16 2 15.1 2 14V10Z"/>
<path d="M15 17C14.7 17 14.5 16.9 14.3 16.7C13.9 16.3 13.9 15.7 14.3 15.3C14.3 15.3 15.5 14 15.5 12C15.5 10 14.3 8.8 14.3 8.7C13.9 8.3 13.9 7.7 14.3 7.3C14.7 6.9 15.3 6.9 15.7 7.3C15.8 7.4 17.5 9.1 17.5 12C17.5 14.9 15.8 16.6 15.7 16.7C15.5 16.9 15.3 17 15 17Z"/>
<path d="M18 21C17.7 21 17.5 20.9 17.3 20.7C16.9 20.3 16.9 19.7 17.3 19.3C17.3 19.3 20.2 16.5 20.2 12C20.2 7.5 17.3 4.8 17.3 4.7C16.9 4.3 16.9 3.7 17.3 3.3C17.7 2.9 18.3 2.9 18.7 3.3C18.8 3.4 22.2 6.7 22.2 12C22.2 17.4 18.8 20.6 18.7 20.7C18.5 20.9 18.2 21 18 21Z"/>
</g>
</g>
</symbol><symbol viewBox="0 0 24 24" id="outline" xmlns="http://www.w3.org/2000/svg">
<g id="boPin/outline">
<g id="boPin">
<g id="boVector">
<path fill-rule="evenodd" clip-rule="evenodd" d="M12 7.75C10.8954 7.75 10 8.64543 10 9.75C10 10.8546 10.8954 11.75 12 11.75C13.1046 11.75 14 10.8546 14 9.75C14 8.64543 13.1046 7.75 12 7.75ZM8 9.75C8 7.54086 9.79086 5.75 12 5.75C14.2091 5.75 16 7.54086 16 9.75C16 11.9591 14.2091 13.75 12 13.75C9.79086 13.75 8 11.9591 8 9.75Z"/>
<path fill-rule="evenodd" clip-rule="evenodd" d="M12 3.25C8.38046 3.25 5.5 6.08606 5.5 9.51923C5.5 12.318 7.18201 15.1448 9.02064 17.3682C9.92325 18.4597 10.8284 19.3639 11.5085 19.9951C11.6904 20.164 11.8557 20.3129 12 20.4402C12.1443 20.3129 12.3096 20.164 12.4915 19.9951C13.1716 19.3639 14.0768 18.4597 14.9794 17.3682C16.818 15.1448 18.5 12.318 18.5 9.51923C18.5 6.08606 15.6195 3.25 12 3.25ZM12 21.75C11.3812 22.5355 11.3809 22.5353 11.3807 22.5351L11.3782 22.5332L11.3725 22.5287L11.3531 22.5132C11.3367 22.5 11.3134 22.4812 11.2836 22.4569C11.224 22.4083 11.1386 22.3377 11.031 22.2465C10.8158 22.064 10.5115 21.7986 10.1478 21.4609C9.42158 20.7868 8.45175 19.8187 7.47936 18.6428C5.56799 16.3314 3.5 13.0428 3.5 9.51923C3.5 4.92303 7.33527 1.25 12 1.25C16.6647 1.25 20.5 4.92303 20.5 9.51923C20.5 13.0428 18.432 16.3314 16.5206 18.6428C15.5482 19.8187 14.5784 20.7868 13.8522 21.4609C13.4885 21.7986 13.1842 22.064 12.969 22.2465C12.8614 22.3377 12.776 22.4083 12.7164 22.4569C12.6866 22.4812 12.6633 22.5 12.6469 22.5132L12.6275 22.5287L12.6218 22.5332L12.62 22.5346C12.6197 22.5348 12.6188 22.5355 12 21.75ZM12 21.75L12.6188 22.5355C12.2558 22.8215 11.7437 22.8211 11.3807 22.5351L12 21.75Z"/>
</g>
</g>
</g>
</symbol><symbol viewBox="0 0 24 24" id="search" xmlns="http://www.w3.org/2000/svg">
<g id="bvsearch">
<path id="bvVector (Stroke)" fill-rule="evenodd" clip-rule="evenodd" d="M10.875 3.25C6.66383 3.25 3.25 6.66383 3.25 10.875C3.25 15.0862 6.66383 18.5 10.875 18.5C12.9789 18.5 14.8822 17.6492 16.2628 16.2706C17.646 14.8893 18.5 12.9828 18.5 10.875C18.5 6.66383 15.0862 3.25 10.875 3.25ZM1.25 10.875C1.25 5.55926 5.55926 1.25 10.875 1.25C16.1907 1.25 20.5 5.55926 20.5 10.875C20.5 13.1742 19.6928 15.2863 18.348 16.9413L22.4565 21.0422C22.8473 21.4324 22.8479 22.0656 22.4578 22.4565C22.0676 22.8473 21.4344 22.8479 21.0435 22.4578L16.933 18.3547C15.2792 19.6955 13.1703 20.5 10.875 20.5C5.55926 20.5 1.25 16.1907 1.25 10.875Z"/>
</g>
</symbol><symbol viewBox="0 0 24 24" id="solid" xmlns="http://www.w3.org/2000/svg">
<g id="bxPin/solid">
<path id="bxSubtract" fill-rule="evenodd" clip-rule="evenodd" d="M12.9158 22.4406C15.0647 20.4527 20.25 15.1014 20.25 9.75C20.25 5.19365 16.5563 1.5 12 1.5C7.44365 1.5 3.75 5.19365 3.75 9.75C3.75 15.1014 8.93533 20.4527 11.0842 22.4406C11.6082 22.9255 12.3918 22.9255 12.9158 22.4406ZM12 13.125C13.864 13.125 15.375 11.614 15.375 9.75C15.375 7.88604 13.864 6.375 12 6.375C10.136 6.375 8.625 7.88604 8.625 9.75C8.625 11.614 10.136 13.125 12 13.125Z"/>
</g>
</symbol></svg>